<svg xmlns="http://www.w3.org/2000/svg" width="1600" height="509" viewBox="0 0 1600 509">
<g>
<path d="M 804.82 242.03 C782.27,244.62 765.85,240.16 755.12,228.51 C747.46,220.20 745.00,210.37 745.00,188.00 C745.00,153.87 751.30,142.24 773.66,135.11 C786.01,131.17 806.18,131.50 817.13,135.83 C829.07,140.54 833.73,144.79 838.57,155.38 C841.09,160.87 841.12,161.21 841.10,186.72 C841.08,212.20 841.05,212.57 838.46,219.00 C833.32,231.72 820.98,240.17 804.82,242.03 ZM 665.19 240.75 C665.09,240.89 660.04,241.00 653.97,241.00 C646.03,241.00 642.82,240.65 642.52,239.75 C641.52,236.74 641.37,136.03 642.36,135.04 C643.83,133.57 693.55,133.66 699.74,135.14 C708.80,137.31 716.96,141.22 720.41,145.03 C729.93,155.57 730.73,176.81 722.08,189.39 C719.47,193.18 712.29,199.02 708.66,200.30 C707.92,200.57 708.39,201.93 709.99,204.11 C716.88,213.49 733.00,238.34 733.00,239.58 C733.00,240.73 730.57,241.00 720.05,241.00 L 707.10 241.00 L 702.41 233.75 C699.83,229.76 694.56,221.20 690.71,214.71 L 683.70 202.93 L 675.10 203.21 L 666.50 203.50 L 665.94 222.00 C665.64,232.18 665.30,240.61 665.19,240.75 ZM 1282.39 239.42 C1281.89,240.73 1279.90,241.00 1270.86,241.00 C1263.04,241.00 1259.80,240.64 1259.46,239.75 C1259.20,239.06 1259.10,215.10 1259.24,186.50 L 1259.50 134.50 L 1282.00 133.93 L 1284.99 138.22 C1294.79,152.26 1305.28,167.52 1315.05,182.00 C1321.18,191.07 1326.60,198.65 1327.10,198.83 C1327.62,199.03 1328.00,186.07 1328.00,167.78 C1328.00,144.71 1328.32,136.08 1329.20,135.20 C1330.83,133.57 1349.17,133.57 1350.80,135.20 C1351.70,136.10 1352.00,148.18 1351.99,183.45 C1351.99,209.33 1351.70,232.86 1351.35,235.75 L 1350.72 241.00 L 1329.24 241.00 L 1326.79 237.75 C1325.44,235.96 1321.41,230.23 1317.83,225.00 C1314.25,219.77 1308.23,211.00 1304.45,205.50 C1300.68,200.00 1294.73,191.34 1291.23,186.25 C1287.74,181.16 1284.46,177.00 1283.94,177.00 C1283.37,177.00 1283.00,189.03 1283.00,207.42 C1283.00,224.15 1282.73,238.55 1282.39,239.42 ZM 558.85 239.68 C557.34,241.50 536.38,241.56 535.70,239.75 C534.76,237.25 536.26,136.51 537.26,135.25 C538.83,133.26 586.79,133.52 595.59,135.56 C608.44,138.54 616.03,144.22 620.52,154.23 C623.00,159.75 623.33,161.68 623.33,170.54 C623.33,179.16 622.97,181.38 620.82,186.09 C617.26,193.86 612.76,198.55 605.65,201.87 C597.40,205.73 595.09,206.13 576.50,206.86 L 560.50 207.50 L 560.22 222.93 C560.06,232.23 559.51,238.88 558.85,239.68 ZM 1236.39 239.42 C1235.85,240.82 1231.52,241.00 1197.86,241.00 C1168.44,241.00 1159.83,240.72 1159.46,239.75 C1159.20,239.06 1159.10,215.10 1159.24,186.50 L 1159.50 134.50 L 1235.50 134.50 L 1236.07 153.97 L 1184.50 154.50 L 1184.50 176.50 L 1231.50 177.50 L 1231.50 196.50 L 1184.50 197.50 L 1184.50 220.50 L 1209.07 220.58 C1222.59,220.62 1234.40,220.94 1235.32,221.29 C1236.70,221.82 1237.00,223.37 1237.00,229.89 C1237.00,234.26 1236.73,238.55 1236.39,239.42 ZM 887.50 199.50 L 886.50 240.50 L 863.33 241.06 L 862.67 188.87 C862.19,151.06 862.32,136.32 863.13,135.34 C864.03,134.26 871.52,134.00 901.52,134.00 C905.20,134.00 908.53,133.99 911.55,133.99 C931.92,133.94 937.87,133.92 939.51,136.57 C940.19,137.67 940.13,139.21 940.06,141.39 C940.03,142.18 940.00,143.04 940.00,144.00 C940.00,144.85 940.01,145.62 940.03,146.33 C940.08,148.97 940.11,150.71 939.30,151.85 C937.74,154.06 933.03,154.05 919.22,154.01 C917.29,154.01 915.19,154.00 912.89,154.00 L 887.00 154.00 L 887.00 178.96 L 934.50 179.50 L 934.79 188.41 C934.97,193.94 934.67,197.73 933.98,198.41 C933.25,199.13 925.25,199.50 910.19,199.50 ZM 1065.75 242.00 C1036.25,245.83 1015.81,237.75 1006.90,218.75 L 1003.50 211.50 L 1003.54 188.00 C1003.58,164.93 1003.63,164.37 1006.26,157.72 C1012.13,142.83 1022.66,135.84 1043.68,132.91 C1058.52,130.83 1087.00,135.53 1087.00,140.05 C1087.00,141.50 1083.13,155.20 1082.56,155.78 C1082.29,156.05 1078.05,155.53 1073.14,154.63 C1057.50,151.77 1043.53,152.82 1036.79,157.36 C1034.98,158.58 1032.38,161.58 1031.00,164.04 C1028.59,168.34 1028.50,169.16 1028.50,186.50 C1028.50,203.88 1028.59,204.69 1031.15,210.15 C1033.26,214.64 1034.79,216.38 1038.65,218.65 C1043.29,221.38 1044.03,221.50 1055.50,221.41 C1063.49,221.35 1069.39,220.76 1073.15,219.66 C1073.68,219.50 1074.18,219.35 1074.65,219.21 C1077.77,218.28 1079.51,217.76 1080.76,218.33 C1082.54,219.14 1083.30,222.16 1085.56,229.37 C1087.35,235.07 1087.35,235.27 1085.55,236.59 C1082.90,238.52 1074.21,240.90 1065.75,242.00 ZM 1442.48 155.00 L 1426.00 155.00 L 1426.00 241.00 L 1414.67 241.00 C1408.43,241.00 1403.03,240.70 1402.67,240.33 C1402.30,239.97 1402.00,220.62 1402.00,197.33 L 1402.00 155.00 L 1387.50 155.00 C1379.53,155.00 1373.00,154.60 1373.00,154.12 C1373.00,153.63 1372.08,152.99 1370.96,152.70 C1369.08,152.21 1368.94,151.51 1369.21,144.03 L 1369.50 135.90 L 1414.50 135.70 L 1459.50 135.50 L 1459.80 142.99 C1459.83,143.84 1459.87,144.63 1459.90,145.36 C1460.10,149.59 1460.22,151.97 1459.09,153.31 C1457.63,155.05 1454.10,155.03 1446.00,155.01 C1444.91,155.00 1443.74,155.00 1442.48,155.00 ZM 784.68 221.05 C786.23,221.55 790.97,221.79 795.21,221.58 C812.90,220.70 818.01,212.30 817.99,184.11 C817.99,170.43 817.18,166.05 813.74,160.94 C810.25,155.76 805.83,153.72 797.03,153.21 C787.15,152.64 779.20,154.78 775.67,158.98 C771.20,164.29 770.51,168.13 770.56,187.50 C770.60,203.54 770.83,206.00 772.68,210.11 C774.85,214.92 779.87,219.49 784.68,221.05 ZM 982.76 187.25 L 982.50 240.50 L 971.48 240.78 C963.76,240.98 960.09,240.69 959.23,239.83 C957.62,238.22 957.44,138.92 959.04,135.93 C959.97,134.19 961.22,134.00 971.54,134.00 L 983.02 134.00 ZM 1131.89 239.64 C1131.07,240.63 1127.94,241.00 1120.50,241.00 C1113.06,241.00 1109.93,240.63 1109.11,239.64 C1108.30,238.65 1108.05,223.87 1108.24,186.39 L 1108.50 134.50 L 1132.50 134.50 L 1132.76 186.39 C1132.95,223.87 1132.70,238.65 1131.89,239.64 ZM 563.88 186.35 C565.32,186.61 571.45,186.71 577.50,186.58 C586.58,186.38 589.08,185.98 591.83,184.29 C596.51,181.39 598.07,178.74 598.70,172.62 C599.43,165.54 597.69,160.63 593.25,157.24 C589.79,154.60 589.15,154.49 575.47,154.16 L 561.29 153.82 L 560.64 157.03 C559.83,161.11 559.83,173.92 560.64,180.70 C561.20,185.31 561.56,185.94 563.88,186.35 ZM 666.44 181.70 C666.81,182.68 670.19,183.00 680.00,183.00 C698.81,183.00 702.79,180.87 703.65,170.32 C704.03,165.65 703.73,163.87 702.11,161.30 C698.47,155.54 695.17,154.52 680.00,154.51 L 666.50 154.50 L 666.22 167.45 C666.06,174.57 666.16,180.98 666.44,181.70 Z" fill="rgb(10,34,82)"/>
<path d="M 352.00 373.41 C336.88,380.89 324.15,387.01 323.72,387.00 C322.13,387.00 321.97,383.91 322.23,358.18 L 322.50 331.89 L 327.00 329.50 C334.84,325.35 426.42,280.25 428.25,279.64 C429.88,279.10 430.00,276.32 430.01,240.28 L 430.02 201.50 L 425.30 197.39 L 420.58 193.28 L 422.35 190.59 C423.32,189.11 424.88,187.61 425.81,187.26 C426.74,186.92 429.03,185.12 430.91,183.26 C432.78,181.41 435.62,179.63 437.22,179.31 C438.83,178.98 440.89,177.55 441.81,176.11 C442.74,174.68 444.83,172.01 446.46,170.19 C448.10,168.37 449.99,165.55 450.67,163.92 C452.38,159.87 454.49,159.35 458.97,161.86 C461.06,163.04 463.32,164.00 463.99,164.00 C466.01,164.00 475.93,170.39 476.40,172.00 C476.64,172.82 476.98,204.30 477.17,241.94 L 477.50 310.38 L 433.50 332.49 C409.30,344.64 387.25,355.76 384.50,357.20 C381.75,358.63 367.12,365.92 352.00,373.41 ZM 285.75 405.08 C260.80,417.59 259.28,418.26 258.56,417.09 C258.27,416.63 258.01,388.48 257.98,354.52 C257.92,296.29 258.01,292.71 259.71,291.38 C260.69,290.61 294.25,273.60 334.29,253.59 C403.01,219.23 407.24,217.26 410.05,218.33 L 413.03 219.45 L 412.77 244.92 L 412.50 270.39 L 401.00 276.10 C394.67,279.24 371.16,290.96 348.75,302.14 L 308.00 322.47 L 308.00 393.93 Z" fill="rgb(28,118,204)"/>
<path d="M 478.11 277.95 L 477.50 310.38 L 477.17 241.94 C476.98,204.30 476.64,172.82 476.40,172.00 C475.93,170.39 466.01,164.00 463.99,164.00 C463.32,164.00 461.06,163.04 458.97,161.86 C454.49,159.35 452.38,159.87 450.67,163.92 C449.99,165.55 448.10,168.37 446.46,170.19 C444.83,172.01 442.74,174.68 441.81,176.11 C440.89,177.55 438.83,178.98 437.22,179.31 C435.62,179.63 432.78,181.41 430.91,183.26 C429.03,185.12 426.74,186.92 425.81,187.26 C424.88,187.61 423.32,189.11 422.35,190.59 L 420.58 193.28 L 425.30 197.39 L 430.02 201.50 L 430.01 240.28 C430.00,276.32 429.88,279.10 428.25,279.64 C427.04,280.05 386.56,299.92 357.02,314.52 C363.65,311.23 370.96,307.61 378.50,303.89 C404.35,291.11 426.29,279.98 427.25,279.17 C428.86,277.81 429.00,274.66 429.00,240.00 C429.00,205.34 428.86,202.19 427.25,200.82 C425.35,199.19 418.56,195.42 401.50,186.51 C391.26,181.16 386.64,178.71 367.00,168.24 C362.88,166.05 354.33,161.52 348.00,158.19 C341.67,154.86 329.98,148.61 322.00,144.30 L 307.50 136.45 L 307.23 109.23 C307.21,106.85 307.18,104.67 307.16,102.66 C306.98,88.95 306.91,83.37 309.05,82.33 C310.52,81.61 313.04,83.05 317.29,85.48 C318.19,86.00 319.18,86.56 320.25,87.15 C325.34,89.99 338.05,96.69 348.50,102.04 C386.64,121.58 420.77,139.25 432.00,145.29 C436.12,147.51 448.03,153.76 458.45,159.18 C468.88,164.61 477.76,169.60 478.19,170.27 C479.07,171.66 479.03,229.29 478.11,277.95 ZM 544.02 302.44 C542.33,307.56 541.00,306.82 540.99,300.75 C540.99,297.86 540.55,292.80 540.00,289.50 C539.36,285.55 539.36,283.39 540.01,283.17 C540.55,282.98 541.00,282.24 541.00,281.52 C541.00,279.80 542.86,279.24 546.26,279.94 L 549.01 280.50 L 546.92 285.00 C545.78,287.48 544.39,290.34 543.84,291.36 C543.16,292.63 543.22,294.11 544.02,296.05 C544.92,298.22 544.92,299.72 544.02,302.44 ZM 721.97 287.25 C721.95,287.94 721.33,289.30 720.58,290.29 C719.33,291.94 719.14,291.83 718.09,288.82 C717.04,285.82 717.18,285.34 719.79,282.90 C722.28,280.57 722.93,280.39 724.91,281.45 C727.03,282.59 727.08,282.78 725.52,284.34 C724.61,285.25 723.44,286.00 722.93,286.00 C722.42,286.00 721.99,286.56 721.97,287.25 ZM 773.37 294.81 C772.52,302.54 771.00,303.80 771.00,296.78 C771.00,290.58 771.73,287.72 773.11,288.57 C773.60,288.87 773.72,291.68 773.37,294.81 ZM 672.35 284.13 C667.62,285.99 665.28,284.12 669.23,281.63 C670.37,280.91 671.31,281.02 672.51,282.01 C674.08,283.31 674.07,283.46 672.35,284.13 ZM 1029.00 304.43 C1029.00,305.09 1028.03,305.05 1026.25,304.34 C1024.79,303.75 1024.54,300.00 1025.96,300.00 C1026.86,300.00 1029.00,303.13 1029.00,304.43 ZM 670.00 280.00 C669.17,280.53 667.60,280.94 666.50,280.91 L 664.50 280.86 L 666.50 280.00 C667.60,279.53 669.17,279.12 670.00,279.09 C671.33,279.04 671.33,279.14 670.00,280.00 ZM 433.50 332.49 C409.31,344.64 387.27,355.75 384.50,357.19 C387.27,355.75 409.31,344.64 433.50,332.49 L 477.50 310.38 L 477.50 310.39 Z" fill="rgb(96,177,234)"/>
<path d="M 226.21 398.75 C225.97,400.18 225.13,400.28 223.00,399.13 C222.18,398.68 211.38,393.00 199.00,386.50 C186.62,379.99 175.71,374.00 174.75,373.18 C173.12,371.79 173.01,367.64 173.10,311.10 C173.15,277.77 173.49,249.38 173.85,248.00 C174.40,245.89 179.49,243.02 206.80,229.48 C224.56,220.67 239.52,212.80 240.03,211.98 C240.55,211.17 240.98,199.59 240.98,186.25 C240.99,185.52 240.99,184.81 240.99,184.12 C241.00,167.18 241.00,162.92 239.28,162.04 C238.70,161.74 237.92,161.82 236.89,161.94 C236.76,161.95 236.63,161.97 236.50,161.98 C232.91,162.36 153.78,202.42 152.50,204.50 C151.55,206.05 151.43,218.32 152.00,259.50 C152.40,288.65 152.56,312.95 152.34,313.50 C151.61,315.37 106.16,337.28 104.41,336.60 C102.86,336.01 102.78,330.65 103.36,263.73 C103.71,224.00 104.27,187.37 104.61,182.32 L 105.24 173.14 L 110.37 170.96 C113.19,169.76 118.03,167.26 121.13,165.39 C124.23,163.53 127.45,162.00 128.28,162.00 C129.12,162.00 132.21,160.36 135.15,158.36 C138.09,156.35 144.77,152.70 150.00,150.24 C155.23,147.78 168.50,141.37 179.50,135.98 C190.50,130.60 200.62,125.87 202.00,125.47 C204.98,124.61 212.28,120.52 216.59,117.31 C218.30,116.04 220.00,115.00 220.38,115.00 C220.76,115.00 228.76,111.18 238.17,106.50 C247.58,101.82 255.83,98.00 256.51,98.00 C257.18,98.00 258.80,97.16 260.12,96.13 C262.30,94.41 274.67,89.00 276.40,89.00 C276.80,89.00 278.60,87.88 280.38,86.52 C282.17,85.16 284.73,83.92 286.07,83.77 L 288.50 83.50 L 289.16 100.00 C289.53,109.07 289.98,144.85 290.16,179.50 L 290.50 242.50 L 226.50 274.50 L 226.46 336.00 C226.45,369.83 226.33,398.06 226.21,398.75 ZM 1462.00 402.50 C1462.00,403.63 1289.80,404.47 1288.67,403.34 C1288.30,402.97 1288.00,402.29 1288.00,401.83 C1288.00,401.37 1327.15,401.10 1375.00,401.24 C1432.16,401.41 1462.00,401.84 1462.00,402.50 ZM 936.80 419.80 C936.14,420.46 935.10,421.00 934.50,421.00 C931.61,421.00 931.00,418.35 931.00,405.85 L 931.00 393.11 L 926.25 392.80 C921.93,392.53 921.50,392.27 921.50,390.00 L 921.50 387.50 L 933.36 387.22 C946.16,386.91 948.79,387.66 946.94,391.11 C946.21,392.48 944.83,393.00 941.96,393.00 L 938.00 393.00 L 938.00 405.80 C938.00,414.42 937.61,418.99 936.80,419.80 ZM 726.50 317.50 L 725.50 342.50 L 719.91 342.80 C715.78,343.01 713.98,342.68 713.02,341.52 C711.98,340.27 711.86,334.01 712.43,310.23 C712.83,293.88 713.51,280.14 713.94,279.69 C715.22,278.36 735.67,277.66 736.45,278.91 C736.91,279.66 734.81,280.01 729.81,280.04 C723.27,280.07 722.75,280.21 724.84,281.37 C725.67,281.83 726.19,282.14 726.44,282.44 C726.20,282.16 725.70,281.87 724.91,281.45 C723.32,280.60 722.59,280.55 721.07,281.77 C721.64,281.18 722.00,280.72 722.00,280.55 C722.00,280.25 720.20,280.00 718.00,280.00 L 714.00 280.00 L 714.00 342.10 L 719.25 341.80 L 724.50 341.50 L 725.50 316.50 L 750.50 315.50 L 750.80 310.78 L 751.11 306.06 L 738.30 305.78 L 725.50 305.50 L 725.50 289.50 L 753.50 288.50 L 754.11 280.00 L 747.81 279.88 L 741.50 279.77 L 746.97 278.86 C754.60,277.60 755.16,277.99 754.80,284.24 L 754.50 289.50 L 740.25 289.78 L 726.00 290.05 L 726.00 304.94 L 751.50 305.50 L 751.50 316.50 ZM 499.00 402.44 C499.00,403.83 494.88,403.98 461.75,403.82 C423.99,403.64 408.67,403.04 412.64,401.87 C413.82,401.53 433.73,401.16 456.89,401.07 C494.42,400.91 499.00,401.06 499.00,402.44 ZM 768.50 409.99 C767.74,417.99 767.14,420.54 766.00,420.74 C762.28,421.38 761.94,419.82 762.22,403.42 L 762.50 387.50 L 765.16 387.19 C767.19,386.96 768.39,387.66 770.27,390.19 C774.01,395.21 776.30,399.00 775.60,399.00 C775.26,399.00 773.37,396.50 771.42,393.44 C768.65,389.10 767.38,387.95 765.68,388.19 C763.55,388.49 763.50,388.83 763.50,404.00 C763.50,417.11 763.73,419.50 765.00,419.50 C766.23,419.50 766.55,417.46 766.78,408.25 C766.99,400.20 767.41,397.01 768.28,397.05 C768.95,397.08 772.65,401.92 776.50,407.80 C781.50,415.45 784.14,418.59 785.75,418.82 L 788.00 419.14 L 788.00 403.57 C788.00,390.40 787.77,388.00 786.50,388.00 C785.31,388.00 785.00,389.48 784.99,395.25 C784.98,403.13 784.10,410.01 783.12,409.98 C782.04,409.95 775.94,400.00 776.99,400.00 C777.55,400.00 778.00,400.39 778.00,400.87 C778.00,401.34 779.01,403.02 780.25,404.60 L 782.50 407.46 L 783.50 397.48 C784.40,388.50 784.70,387.50 786.50,387.50 C788.41,387.50 788.51,388.26 788.77,403.75 L 789.05 420.00 L 786.02 420.00 C783.27,420.00 782.34,419.02 776.24,409.75 L 769.50 399.50 ZM 1303.10 324.00 L 1302.50 342.50 L 1296.37 342.79 C1291.82,343.01 1290.11,342.73 1289.71,341.68 C1288.98,339.78 1289.74,280.23 1290.51,278.98 C1291.29,277.72 1299.58,277.70 1301.93,278.96 C1303.52,279.81 1305.44,282.65 1314.75,297.83 C1318.09,303.27 1320.36,307.64 1319.26,306.50 C1318.73,305.95 1315.70,301.23 1312.53,296.00 C1302.87,280.10 1302.78,280.00 1296.45,280.00 L 1291.00 280.00 L 1291.00 342.00 L 1302.00 342.00 L 1302.00 321.42 C1302.00,305.81 1302.29,300.93 1303.20,301.23 C1303.87,301.46 1305.00,303.18 1305.73,305.07 C1306.93,308.19 1306.91,308.33 1305.52,306.56 C1304.69,305.49 1303.93,304.82 1303.85,305.06 C1303.77,305.30 1303.43,313.83 1303.10,324.00 ZM 932.62 418.46 C932.97,419.35 933.75,419.92 934.37,419.71 C935.10,419.47 935.59,415.30 935.75,407.92 C936.08,392.27 936.09,392.26 941.50,391.45 C944.40,391.01 946.00,390.27 946.00,389.35 C946.00,388.19 943.86,387.99 934.25,388.22 C924.60,388.45 922.50,388.77 922.50,390.00 C922.50,391.03 923.60,391.53 926.00,391.60 C927.92,391.65 930.06,391.77 930.75,391.85 C931.67,391.96 932.00,395.23 932.00,404.42 C932.00,411.25 932.28,417.57 932.62,418.46 ZM 859.50 418.00 C859.50,420.48 859.42,420.50 850.50,420.56 L 841.50 420.61 L 850.25 420.27 C858.16,419.96 859.00,419.74 859.00,417.96 C859.00,416.19 858.29,416.00 851.65,416.00 L 844.30 416.00 L 843.65 407.75 C843.30,403.21 843.01,396.91 843.01,393.75 C843.00,389.31 842.66,388.00 841.50,388.00 C840.23,388.00 840.00,390.45 840.00,404.06 C840.00,414.51 839.65,419.90 839.00,419.50 C838.41,419.13 838.00,412.86 838.00,404.06 C838.00,391.76 838.27,389.02 839.58,387.93 C840.73,386.98 841.62,386.90 842.83,387.67 C844.83,388.93 844.72,388.11 844.88,402.96 L 845.00 414.91 L 852.25 415.21 C859.24,415.49 859.50,415.59 859.50,418.00 ZM 1393.21 341.96 C1391.17,342.52 1388.60,342.94 1387.50,342.88 C1386.40,342.81 1387.53,342.25 1390.00,341.63 C1396.82,339.92 1397.07,339.59 1395.25,334.95 C1394.08,331.97 1393.25,331.08 1392.08,331.54 C1391.21,331.88 1387.32,332.41 1383.43,332.71 C1375.21,333.35 1369.80,331.44 1367.56,327.12 C1365.72,323.55 1364.61,310.44 1365.47,302.42 C1366.03,297.21 1366.76,295.18 1368.98,292.69 C1371.65,289.71 1372.20,289.54 1379.65,289.38 L 1387.50 289.20 L 1380.50 289.86 C1372.97,290.58 1369.64,291.93 1368.02,294.96 C1367.46,296.01 1367.00,303.19 1367.00,310.92 C1367.00,324.90 1367.01,324.98 1369.81,328.11 C1372.07,330.65 1373.60,331.35 1377.67,331.74 C1380.44,332.01 1385.11,331.71 1388.03,331.09 C1394.07,329.79 1394.72,330.13 1396.61,335.65 C1398.17,340.18 1397.91,340.65 1393.21,341.96 ZM 818.57 407.68 C818.02,409.10 811.12,409.31 808.94,407.97 C807.78,407.24 811.96,394.96 813.48,394.67 C814.72,394.43 819.23,405.95 818.57,407.68 ZM 810.38 403.85 C809.77,406.92 809.84,407.00 813.38,407.00 C815.75,407.00 817.00,406.54 817.00,405.65 C817.00,403.47 814.87,398.00 814.02,398.00 C812.65,398.00 811.03,400.60 810.38,403.85 ZM 574.96 317.36 C573.44,318.26 571.59,319.00 570.85,318.99 C570.11,318.99 570.85,318.29 572.50,317.43 C580.38,313.33 582.34,309.16 581.85,297.54 C581.66,292.84 581.60,289.00 581.71,289.00 C581.83,289.00 582.43,290.89 583.05,293.19 C585.42,301.98 581.58,313.46 574.96,317.36 ZM 1395.49 288.38 C1393.95,292.06 1391.91,292.88 1389.00,291.00 C1387.86,290.26 1388.25,290.03 1390.65,290.02 C1393.28,290.00 1393.99,289.48 1394.90,286.85 C1396.39,282.60 1396.32,282.24 1393.92,281.48 C1392.78,281.11 1392.07,280.59 1392.35,280.32 C1392.62,280.04 1393.78,280.11 1394.92,280.48 C1397.39,281.26 1397.54,283.45 1395.49,288.38 ZM 1100.11 298.00 C1099.62,298.00 1098.47,299.69 1097.57,301.75 C1096.36,304.52 1096.07,304.79 1096.47,302.79 C1097.36,298.38 1098.88,295.00 1099.98,295.00 C1100.54,295.00 1101.00,295.67 1101.00,296.50 C1101.00,297.33 1100.60,298.00 1100.11,298.00 ZM 719.10 291.17 C719.49,291.61 719.86,291.24 720.58,290.29 L 720.60 290.26 L 719.63 292.46 ZM 721.97 287.25 C721.99,286.56 722.42,286.00 722.93,286.00 C723.44,286.00 724.61,285.25 725.52,284.34 C724.61,285.25 723.55,286.00 723.17,286.00 C722.93,286.00 722.46,286.59 721.95,287.48 C721.96,287.39 721.97,287.32 721.97,287.25 ZM 718.80 283.86 C717.38,285.31 717.21,286.04 717.78,287.88 C717.02,285.85 717.20,285.29 718.80,283.86 Z" fill="rgb(207,211,218)"/>
<path d="M 988.71 341.13 C984.50,343.30 974.46,344.31 968.92,343.13 C964.77,342.25 959.42,339.14 956.27,335.78 C952.12,331.37 951.00,325.87 951.00,309.84 C951.00,289.75 952.59,285.90 962.78,281.36 C966.90,279.52 969.81,279.00 976.06,279.00 C985.06,279.00 988.96,280.27 994.26,284.92 C1000.10,290.05 1001.36,295.49 1000.75,312.90 C1000.47,320.93 999.71,328.85 999.06,330.50 C997.48,334.50 993.35,338.75 988.71,341.13 ZM 670.00 280.00 C670.51,279.67 670.83,279.45 670.95,279.31 C679.89,278.15 690.41,280.63 695.20,285.75 C700.41,291.32 701.00,293.77 700.99,309.70 C700.99,317.84 700.52,326.20 699.94,328.28 C698.55,333.27 693.50,338.89 688.34,341.17 C682.79,343.63 673.62,344.30 667.85,342.67 C654.28,338.84 650.26,330.14 651.25,306.73 C651.96,289.74 653.79,285.96 663.50,281.38 C663.89,281.20 664.28,281.02 664.69,280.86 L 666.50 280.91 C667.60,280.94 669.17,280.53 670.00,280.00 ZM 605.80 341.80 C604.54,343.06 595.81,343.48 594.67,342.33 C593.64,341.31 593.87,281.20 594.90,280.56 C595.40,280.25 600.91,279.79 607.15,279.52 C631.39,278.50 640.44,283.78 640.39,298.94 C640.36,306.89 638.43,311.04 632.99,314.79 C630.84,316.28 629.06,317.74 629.04,318.02 C629.02,318.31 630.55,320.89 632.44,323.76 C637.89,332.05 642.26,340.77 641.54,341.93 C641.18,342.52 638.47,343.00 635.52,343.00 L 630.16 343.00 L 626.05 336.75 C623.79,333.31 620.72,327.92 619.22,324.77 L 616.50 319.05 L 607.00 319.00 L 607.00 329.80 C607.00,336.87 606.59,341.01 605.80,341.80 ZM 1025.80 341.80 C1025.14,342.46 1022.76,343.00 1020.50,343.00 C1018.24,343.00 1015.86,342.46 1015.20,341.80 C1014.32,340.92 1014.00,332.77 1014.00,311.38 C1014.00,295.31 1014.27,281.45 1014.61,280.58 C1015.48,278.31 1024.12,278.42 1026.79,280.75 C1028.55,282.28 1034.58,291.84 1046.70,312.27 C1048.58,315.45 1050.54,317.78 1051.06,317.46 C1051.59,317.13 1052.00,308.90 1052.00,298.53 L 1052.00 280.18 L 1055.96 279.51 C1058.13,279.14 1060.84,279.13 1061.97,279.49 C1064.00,280.13 1064.02,280.62 1063.76,311.32 L 1063.50 342.50 L 1057.81 342.80 L 1052.12 343.10 L 1048.70 337.75 C1046.82,334.81 1044.21,330.53 1042.89,328.24 C1033.61,312.08 1029.50,306.00 1027.84,306.00 C1027.38,306.00 1027.00,313.79 1027.00,323.30 C1027.00,335.42 1026.64,340.96 1025.80,341.80 ZM 1303.10 324.00 C1303.43,313.83 1303.77,305.30 1303.85,305.06 C1303.93,304.82 1304.69,305.49 1305.52,306.56 C1306.91,308.33 1306.93,308.19 1305.73,305.07 C1305.00,303.18 1303.87,301.46 1303.20,301.23 C1302.29,300.93 1302.00,305.81 1302.00,321.42 L 1302.00 342.00 L 1291.00 342.00 L 1291.00 280.00 L 1296.45 280.00 C1302.78,280.00 1302.87,280.10 1312.53,296.00 C1315.70,301.23 1318.73,305.95 1319.26,306.50 C1319.94,307.20 1319.33,305.80 1317.98,303.34 C1323.28,312.14 1326.51,317.00 1327.10,317.00 C1327.60,317.00 1328.00,308.84 1328.00,298.50 L 1328.00 280.00 L 1333.92 280.00 C1337.17,280.00 1339.98,280.45 1340.17,280.99 C1340.35,281.54 1340.28,295.60 1340.00,312.24 L 1339.50 342.50 L 1334.37 342.80 L 1329.24 343.10 L 1324.83 336.80 C1322.41,333.33 1317.76,326.00 1314.51,320.50 C1309.13,311.39 1304.23,304.35 1303.85,305.17 C1303.77,305.35 1303.43,313.83 1303.10,324.00 ZM 544.02 302.44 C544.92,299.72 544.92,298.22 544.02,296.05 C543.22,294.11 543.16,292.63 543.84,291.36 C544.39,290.34 545.78,287.48 546.92,285.00 L 549.01 280.50 L 546.26 279.94 C545.82,279.85 545.42,279.78 545.04,279.73 C566.96,279.13 573.57,280.37 578.60,285.40 C579.86,286.66 580.87,288.16 581.66,289.83 C581.64,291.20 581.71,294.15 581.85,297.54 C582.34,309.16 580.38,313.33 572.50,317.43 C570.95,318.23 570.20,318.91 570.73,318.99 C566.51,320.20 560.78,321.00 555.48,321.00 L 549.07 321.00 L 548.78 331.75 L 548.50 342.50 L 543.46 342.79 C540.69,342.96 538.10,342.77 537.71,342.38 C537.32,341.99 537.00,327.79 537.00,310.83 L 537.00 280.00 L 539.75 279.90 C540.65,279.87 541.54,279.84 542.40,279.81 C541.48,280.07 541.00,280.65 541.00,281.52 C541.00,282.24 540.55,282.98 540.01,283.17 C539.36,283.39 539.36,285.55 540.00,289.50 C540.55,292.80 540.99,297.86 540.99,300.75 C541.00,306.82 542.33,307.56 544.02,302.44 ZM 1084.36 340.75 C1083.20,342.60 1082.06,343.00 1077.95,343.00 C1072.76,343.00 1070.72,341.33 1072.74,338.74 C1073.28,338.06 1073.95,336.60 1074.25,335.50 C1076.13,328.54 1093.14,280.53 1093.88,280.07 C1094.39,279.76 1097.50,279.65 1100.80,279.83 L 1106.81 280.17 L 1109.30 287.83 C1113.06,299.38 1120.47,320.33 1124.51,330.84 C1128.69,341.70 1128.35,343.00 1121.30,343.00 L 1116.84 343.00 L 1110.50 329.01 L 1089.27 329.00 L 1087.52 333.75 C1086.55,336.36 1085.13,339.51 1084.36,340.75 ZM 807.10 332.00 L 806.50 342.50 L 786.73 342.77 C771.37,342.98 766.84,342.76 766.46,341.76 C766.19,341.06 766.09,326.84 766.23,310.18 L 766.50 279.88 L 785.58 279.78 C796.07,279.72 805.18,280.00 805.83,280.39 C807.36,281.34 807.34,287.26 805.80,288.80 C804.99,289.61 800.30,290.00 791.26,290.00 L 777.91 290.00 L 778.50 304.50 L 802.50 305.50 L 802.50 315.50 L 778.50 316.50 L 778.50 323.00 C778.50,326.58 778.66,330.06 778.85,330.75 C779.12,331.67 782.86,332.00 793.16,332.00 ZM 1215.77 341.10 C1211.98,343.05 1200.44,344.28 1194.50,343.36 C1188.53,342.45 1182.00,339.84 1182.00,338.37 C1182.00,337.56 1182.70,335.54 1183.56,333.88 L 1185.13 330.85 L 1191.81 331.62 C1204.03,333.03 1208.14,332.48 1211.25,329.02 C1216.75,322.91 1214.73,320.05 1202.05,316.06 C1187.45,311.47 1183.00,306.97 1183.00,296.78 C1183.00,289.12 1185.43,285.10 1192.06,281.78 C1198.19,278.72 1206.77,278.13 1216.20,280.12 C1224.27,281.82 1225.17,282.49 1223.78,285.77 C1221.53,291.05 1220.24,291.91 1216.24,290.80 C1214.25,290.25 1209.29,289.97 1205.21,290.17 C1197.20,290.58 1195.00,291.99 1195.00,296.74 C1195.00,300.80 1199.21,303.56 1208.13,305.35 C1221.18,307.96 1225.90,311.88 1226.76,320.81 C1227.62,329.82 1223.73,337.01 1215.77,341.10 ZM 845.12 342.46 C839.84,344.32 833.68,344.31 825.06,342.44 C816.72,340.64 815.69,339.62 817.20,334.69 L 818.37 330.90 L 823.93 331.70 C826.99,332.14 832.34,332.44 835.80,332.38 C843.46,332.23 847.00,329.69 847.00,324.35 C847.00,320.18 845.24,319.02 833.50,315.49 C828.56,314.00 823.32,311.94 821.87,310.91 C816.42,307.03 814.33,295.60 817.75,288.37 C820.17,283.25 828.64,279.37 837.90,279.12 C844.29,278.95 855.58,281.19 857.38,282.98 C857.89,283.49 857.42,285.48 856.26,287.68 C854.51,291.02 853.90,291.44 851.38,291.02 C849.80,290.76 844.47,290.53 839.54,290.52 C830.86,290.50 830.54,290.58 829.07,293.18 C827.72,295.59 827.73,296.21 829.20,299.30 C830.71,302.46 831.51,302.91 839.17,304.90 C855.73,309.18 859.99,312.83 860.00,322.73 C860.00,332.93 855.60,338.77 845.12,342.46 ZM 901.76 341.12 C897.79,343.15 887.50,344.28 881.50,343.36 C876.24,342.56 869.00,339.88 869.00,338.74 C869.00,338.14 869.54,336.15 870.20,334.34 L 871.39 331.03 L 876.95 331.76 C880.00,332.17 885.37,332.48 888.88,332.45 C894.57,332.40 895.52,332.10 897.63,329.64 C898.93,328.13 900.00,325.89 900.00,324.67 C900.00,321.91 897.36,318.00 895.49,318.00 C894.72,318.00 890.21,316.69 885.45,315.10 C872.42,310.72 868.22,305.46 869.24,294.81 C870.22,284.70 877.97,279.49 892.00,279.52 C902.44,279.55 911.00,281.50 911.00,283.85 C910.99,284.76 910.08,287.00 908.96,288.84 C907.42,291.36 906.50,291.99 905.21,291.41 C904.27,290.99 899.38,290.45 894.34,290.23 C886.07,289.85 884.98,290.02 883.09,291.91 C880.16,294.84 880.37,299.36 883.56,301.87 C884.97,302.98 888.68,304.38 891.81,304.99 C899.28,306.44 905.29,308.65 908.42,311.11 C914.09,315.58 914.29,329.32 908.77,335.61 C907.07,337.54 903.92,340.02 901.76,341.12 ZM 1388.60 342.91 C1372.60,345.70 1361.60,341.85 1356.53,331.69 C1354.13,326.87 1354.00,325.75 1354.00,310.26 C1354.00,295.84 1354.24,293.46 1356.02,289.96 C1358.27,285.55 1363.41,281.77 1369.60,279.97 C1373.25,278.90 1384.46,279.10 1392.53,280.22 C1392.45,280.24 1392.39,280.28 1392.35,280.32 C1392.07,280.59 1392.78,281.11 1393.92,281.48 C1396.32,282.24 1396.39,282.60 1394.90,286.85 C1393.99,289.48 1393.28,290.00 1390.65,290.02 C1388.25,290.03 1387.86,290.26 1389.00,291.00 L 1389.03 291.02 C1385.14,290.32 1380.05,290.09 1376.45,290.38 C1377.65,290.18 1378.99,290.01 1380.50,289.86 L 1387.50 289.20 L 1379.65 289.38 C1372.20,289.54 1371.65,289.71 1368.98,292.69 C1366.76,295.18 1366.03,297.21 1365.47,302.42 C1364.61,310.44 1365.72,323.55 1367.56,327.12 C1369.80,331.44 1375.21,333.35 1383.43,332.71 C1387.32,332.41 1391.21,331.88 1392.08,331.54 C1393.25,331.08 1394.08,331.97 1395.25,334.95 C1397.07,339.59 1396.82,339.92 1390.00,341.63 C1387.53,342.25 1386.40,342.81 1387.50,342.88 C1388.09,342.91 1389.09,342.81 1390.21,342.62 C1389.71,342.71 1389.17,342.81 1388.60,342.91 ZM 719.10 291.17 L 719.63 292.46 L 720.60 290.26 C721.27,289.37 721.83,288.20 721.95,287.48 C722.46,286.59 722.93,286.00 723.17,286.00 C723.55,286.00 724.61,285.25 725.52,284.34 C726.50,283.36 726.85,282.92 726.44,282.44 C726.19,282.14 725.67,281.83 724.84,281.37 C722.75,280.21 723.27,280.07 729.81,280.04 C734.64,280.01 736.76,279.68 736.48,278.99 L 736.49 278.99 C737.55,279.87 739.72,279.88 745.56,278.99 C746.74,278.81 747.82,278.67 748.79,278.57 C748.24,278.65 747.63,278.75 746.97,278.86 L 741.50 279.77 L 747.81 279.88 L 754.11 280.00 L 753.50 288.50 L 725.50 289.50 L 725.50 305.50 L 738.30 305.78 L 751.11 306.06 L 750.80 310.78 L 750.50 315.50 L 725.50 316.50 L 724.50 341.50 L 719.25 341.80 L 714.00 342.10 L 714.00 280.00 L 718.00 280.00 C720.20,280.00 722.00,280.25 722.00,280.55 C722.00,280.72 721.64,281.18 721.07,281.77 C720.70,282.06 720.28,282.44 719.79,282.90 C719.41,283.25 719.08,283.57 718.80,283.86 C717.20,285.29 717.02,285.85 717.77,287.88 C717.86,288.16 717.97,288.47 718.09,288.82 C718.53,290.09 718.82,290.85 719.10,291.17 ZM 1176.73 341.52 C1175.60,343.53 1138.22,343.74 1137.45,341.74 C1137.19,341.05 1137.09,326.76 1137.23,309.99 L 1137.50 279.50 L 1148.50 279.50 L 1149.50 331.50 L 1176.80 332.06 L 1177.18 336.05 C1177.39,338.24 1177.18,340.71 1176.73,341.52 ZM 669.87 331.32 C673.13,333.34 677.04,333.43 681.45,331.58 C687.27,329.15 688.30,326.41 688.58,312.67 C688.71,305.98 688.40,299.02 687.87,297.21 C686.55,292.65 681.91,290.01 675.17,290.00 C670.62,290.00 669.42,290.42 666.92,292.92 L 664.00 295.85 L 664.00 310.02 C664.00,325.45 664.74,328.13 669.87,331.32 ZM 970.31 331.54 C972.07,332.30 974.62,332.94 976.00,332.96 C979.65,333.01 985.28,329.88 986.72,327.00 C988.27,323.91 988.47,297.75 986.97,294.94 C985.38,291.97 980.61,290.00 974.97,290.00 C970.64,290.00 969.39,290.45 966.92,292.92 L 964.00 295.85 L 964.00 309.97 C964.00,325.93 964.96,329.21 970.31,331.54 ZM 1274.76 311.57 L 1274.50 342.50 L 1268.87 342.80 C1264.42,343.03 1263.12,342.75 1262.62,341.46 C1261.82,339.37 1261.80,282.67 1262.61,280.58 C1263.26,278.87 1271.38,278.32 1273.76,279.83 C1274.75,280.46 1274.97,287.49 1274.76,311.57 ZM 936.93 341.58 C935.43,343.40 926.14,343.52 925.45,341.74 C925.19,341.05 925.09,326.76 925.23,309.99 L 925.50 279.50 L 930.76 279.36 C933.65,279.28 936.32,279.70 936.69,280.30 C937.05,280.90 937.52,294.61 937.73,310.78 C938.01,332.31 937.79,340.55 936.93,341.58 ZM 977.09 419.45 C970.11,423.07 960.10,419.86 957.94,413.32 C956.45,408.79 956.52,397.58 958.06,393.86 C959.58,390.19 964.61,388.00 971.50,388.00 C976.65,388.00 977.53,388.33 980.60,391.40 C983.92,394.72 984.00,394.99 984.00,403.15 C983.99,412.63 982.23,416.80 977.09,419.45 ZM 741.93 419.54 C736.16,422.52 727.80,420.32 724.65,414.99 C722.27,410.95 722.35,395.35 724.77,392.37 C727.38,389.15 730.33,388.00 735.98,388.00 C746.29,388.00 750.00,392.33 750.00,404.37 C750.00,410.98 749.70,412.21 747.38,414.96 C745.94,416.67 743.49,418.73 741.93,419.54 ZM 1086.80 419.80 C1083.48,423.12 1083.00,421.09 1083.00,403.83 L 1083.00 388.00 L 1089.75 388.01 C1098.04,388.01 1103.65,389.48 1104.99,391.98 C1107.17,396.05 1105.13,405.12 1101.77,406.25 C1100.84,406.56 1101.28,408.31 1103.38,412.72 C1108.22,422.89 1104.00,424.31 1098.09,414.50 C1095.00,409.38 1093.99,408.45 1091.23,408.19 L 1088.00 407.87 L 1088.00 413.24 C1088.00,416.19 1087.46,419.14 1086.80,419.80 ZM 571.00 413.38 C571.00,419.26 569.20,422.15 567.11,419.63 C566.31,418.67 566.03,413.55 566.22,403.36 L 566.50 388.50 L 575.84 388.50 C584.93,388.50 585.24,388.58 587.70,391.43 C589.76,393.84 590.12,395.07 589.68,398.33 C589.36,400.71 588.14,403.31 586.64,404.81 L 584.13 407.32 L 587.03 413.07 C589.34,417.64 589.67,419.03 588.65,419.88 C587.27,421.02 583.00,418.79 583.00,416.92 C583.00,416.39 581.87,414.17 580.49,411.98 C578.34,408.58 577.47,408.00 574.49,408.00 L 571.00 408.00 ZM 604.56 416.50 C603.15,419.89 600.77,421.06 599.50,419.00 C599.16,418.44 601.18,411.81 603.99,404.25 C606.81,396.69 609.31,389.91 609.55,389.19 C609.82,388.37 611.19,387.99 613.15,388.19 C616.26,388.49 616.43,388.79 621.71,402.90 C624.67,410.82 626.87,417.91 626.58,418.65 C625.62,421.16 622.91,420.02 621.44,416.50 L 619.97 413.00 L 606.03 413.00 ZM 805.56 416.50 C804.53,418.97 803.47,420.00 801.93,420.00 C801.79,420.00 801.65,420.00 801.52,420.01 C801.04,420.02 800.67,420.03 800.46,419.85 C799.81,419.31 800.64,417.01 804.00,407.61 C804.29,406.79 804.60,405.93 804.93,405.00 C809.77,391.45 810.69,388.58 812.28,388.13 C812.71,388.02 813.18,388.07 813.79,388.14 C813.95,388.16 814.11,388.18 814.29,388.20 C816.94,388.46 817.53,389.15 819.27,394.00 C820.36,397.02 822.81,403.64 824.71,408.71 C826.61,413.77 827.88,418.38 827.53,418.96 C826.24,421.04 824.00,419.92 822.56,416.50 L 821.10 413.00 L 807.03 413.00 ZM 549.43 308.67 C550.16,310.57 562.25,310.44 566.02,308.49 C569.59,306.64 571.00,304.18 571.00,299.79 C571.00,292.85 566.08,289.72 555.92,290.20 L 549.50 290.50 L 549.21 298.92 C549.05,303.55 549.14,307.93 549.43,308.67 ZM 1255.10 418.72 C1250.47,421.83 1239.61,421.65 1236.93,418.42 C1235.00,416.09 1236.57,415.56 1244.53,415.86 C1251.73,416.13 1252.02,416.05 1253.19,413.49 C1254.91,409.71 1253.38,407.95 1246.96,406.34 C1237.62,404.01 1232.95,396.05 1237.97,391.03 C1240.64,388.36 1244.10,387.63 1250.73,388.31 C1260.66,389.34 1260.58,393.00 1250.63,393.00 C1238.35,393.00 1237.89,398.25 1249.85,401.89 C1253.64,403.04 1257.27,404.62 1257.93,405.41 C1258.59,406.22 1258.98,408.94 1258.81,411.64 C1258.54,415.82 1258.07,416.73 1255.10,418.72 ZM 1224.80 419.80 C1223.53,421.07 1206.87,421.54 1205.67,420.33 C1205.30,419.97 1205.00,412.53 1205.00,403.80 L 1205.00 387.93 L 1215.25 388.22 C1223.57,388.45 1225.50,388.78 1225.50,390.00 C1225.50,391.18 1223.84,391.56 1217.75,391.79 L 1210.00 392.08 L 1210.00 401.00 L 1215.94 401.00 C1222.15,401.00 1224.00,402.09 1221.96,404.54 C1221.18,405.49 1218.86,406.00 1215.32,406.00 L 1209.89 406.00 L 1210.50 415.50 L 1218.25 415.79 C1226.07,416.09 1227.58,417.02 1224.80,419.80 ZM 1069.84 419.60 C1068.22,420.60 1051.61,421.34 1050.75,420.44 C1050.34,420.02 1050.00,412.54 1050.00,403.83 L 1050.00 388.00 L 1059.83 388.00 C1070.10,388.00 1071.72,388.43 1069.87,390.66 C1069.13,391.54 1066.41,392.00 1061.88,392.00 L 1055.00 392.00 L 1055.00 401.00 L 1060.25 401.02 C1066.24,401.03 1068.56,402.09 1067.68,404.40 C1067.21,405.62 1065.64,406.00 1061.03,406.00 L 1055.00 406.00 L 1055.00 416.00 L 1062.39 416.00 C1067.97,416.00 1069.92,416.36 1070.35,417.47 C1070.66,418.28 1070.43,419.23 1069.84,419.60 ZM 611.75 308.20 C621.87,308.84 628.00,305.53 628.00,299.41 C628.00,292.26 624.65,290.00 614.05,290.00 L 607.00 290.00 L 607.00 307.89 ZM 964.07 413.37 C965.74,415.49 966.99,416.00 970.50,416.00 C976.90,416.00 979.00,412.96 979.00,403.69 C979.00,394.77 977.65,393.00 970.85,393.00 C963.72,393.00 962.00,395.11 962.00,403.87 C962.00,409.30 962.43,411.28 964.07,413.37 ZM 1035.25 417.21 C1032.57,419.89 1031.22,420.42 1026.30,420.72 C1020.45,421.09 1016.06,419.71 1015.25,417.25 C1014.94,416.33 1016.77,416.00 1022.26,416.00 C1028.19,416.00 1030.02,415.63 1031.34,414.17 C1034.88,410.27 1033.19,407.94 1025.50,406.08 C1018.64,404.42 1016.21,402.61 1015.46,398.63 C1014.51,393.57 1017.09,389.26 1021.56,388.42 C1025.33,387.72 1034.64,388.30 1035.65,389.31 C1035.98,389.64 1035.98,390.61 1035.65,391.46 C1035.21,392.61 1033.55,393.00 1029.11,393.00 C1022.05,393.00 1019.99,393.64 1020.02,395.86 C1020.04,398.96 1021.71,400.13 1028.25,401.62 C1035.79,403.34 1038.15,405.42 1038.30,410.47 C1038.38,413.25 1037.68,414.78 1035.25,417.21 ZM 730.07 413.37 C734.14,418.54 742.91,416.19 744.59,409.48 C745.76,404.85 744.49,395.83 742.46,394.35 C739.97,392.52 732.96,392.64 730.22,394.56 C728.27,395.92 728.00,397.00 728.00,403.42 C728.00,409.30 728.41,411.25 730.07,413.37 ZM 774.04 395.57 C774.90,396.84 775.89,398.31 777.01,400.00 L 776.99 400.00 C775.94,400.00 782.04,409.95 783.12,409.98 C784.10,410.01 784.98,403.13 784.99,395.25 C785.00,389.48 785.31,388.00 786.50,388.00 C787.77,388.00 788.00,390.40 788.00,403.57 L 788.00 419.14 L 785.75 418.82 C784.14,418.59 781.50,415.45 776.50,407.80 C772.65,401.92 768.95,397.08 768.28,397.05 C767.41,397.01 766.99,400.20 766.78,408.25 C766.55,417.46 766.23,419.50 765.00,419.50 C763.73,419.50 763.50,417.11 763.50,404.00 C763.50,388.83 763.55,388.49 765.68,388.19 C767.38,387.95 768.65,389.10 771.42,393.44 C773.37,396.50 775.26,399.00 775.60,399.00 C776.02,399.00 775.39,397.68 774.04,395.57 ZM 1135.64 406.00 C1131.49,416.83 1130.05,419.56 1128.39,419.80 C1125.41,420.23 1124.65,418.88 1120.09,405.18 C1117.84,398.41 1115.53,391.99 1114.96,390.92 C1114.15,389.41 1114.26,388.84 1115.47,388.37 C1118.02,387.39 1119.57,389.56 1122.88,398.76 C1126.82,409.71 1127.63,411.06 1129.00,409.00 C1129.54,408.17 1130.90,405.02 1132.02,402.00 C1133.13,398.98 1134.75,394.56 1135.62,392.19 C1136.90,388.73 1137.63,387.95 1139.35,388.19 C1142.16,388.59 1141.97,389.49 1135.64,406.00 ZM 910.07 419.96 C906.97,421.62 899.80,421.17 896.42,419.11 C891.55,416.15 889.74,411.15 890.16,401.90 C890.47,394.90 890.82,393.73 893.26,391.29 C895.67,388.88 896.90,388.50 903.25,388.23 C910.97,387.90 913.67,388.81 912.68,391.40 C912.20,392.63 910.61,393.00 905.72,393.00 C897.34,393.00 895.81,394.21 895.22,401.30 C894.31,412.34 897.01,416.00 906.04,416.00 C910.61,416.00 912.00,416.34 912.00,417.46 C912.00,418.27 911.13,419.40 910.07,419.96 ZM 539.10 414.12 C538.49,420.45 537.24,422.19 535.12,419.65 C534.31,418.66 534.03,413.67 534.22,403.36 L 534.50 388.50 L 543.91 388.21 C553.30,387.92 556.58,388.82 554.33,391.07 C552.98,392.42 550.80,392.83 544.45,392.92 L 539.39 393.00 L 539.60 401.50 L 546.05 402.00 C550.89,402.38 552.50,402.87 552.50,404.00 C552.50,405.11 551.09,405.58 547.00,405.81 C543.97,405.98 541.10,406.52 540.60,407.00 C540.11,407.49 539.43,410.69 539.10,414.12 ZM 1191.43 419.06 C1190.58,419.77 1187.54,420.49 1184.69,420.66 C1175.05,421.24 1170.14,415.72 1170.05,404.22 C1169.96,392.37 1173.92,387.99 1184.70,388.02 C1191.70,388.03 1193.99,389.10 1192.06,391.42 C1191.12,392.55 1188.97,393.00 1184.43,393.00 C1176.35,393.00 1175.00,394.58 1175.00,404.08 C1175.00,409.73 1175.36,411.10 1177.45,413.35 C1179.58,415.65 1180.70,416.00 1185.89,416.00 C1192.24,416.00 1193.97,416.95 1191.43,419.06 ZM 657.43 419.06 C654.70,421.32 645.92,421.37 642.37,419.15 C638.65,416.80 636.00,410.01 636.00,402.79 C636.00,392.76 640.43,387.99 649.70,388.01 C656.34,388.03 659.16,388.92 658.78,390.88 C658.53,392.18 657.14,392.51 651.74,392.53 C642.93,392.56 641.69,393.77 641.18,402.81 C640.83,409.01 641.03,409.88 643.49,412.80 C645.95,415.73 646.67,416.00 652.03,416.00 C658.25,416.00 659.95,416.96 657.43,419.06 ZM 682.69 419.75 C682.25,420.44 681.44,421.00 680.91,421.00 C679.36,421.00 679.10,419.23 678.79,406.33 C678.63,399.64 678.28,393.94 678.00,393.68 C677.72,393.41 675.92,393.06 674.00,392.90 C670.02,392.56 668.00,391.38 668.00,389.38 C668.00,388.28 670.54,388.00 680.44,388.00 C692.78,388.00 695.64,388.76 693.06,391.34 C692.42,391.98 690.23,392.50 688.20,392.50 L 684.50 392.50 L 684.00 405.50 C683.72,412.65 683.14,419.06 682.69,419.75 ZM 1100.11 298.00 C1100.60,298.00 1101.00,297.33 1101.00,296.50 C1101.00,295.67 1100.54,295.00 1099.98,295.00 C1098.88,295.00 1097.36,298.38 1096.47,302.79 C1096.07,304.79 1096.36,304.52 1097.57,301.75 C1097.85,301.10 1098.16,300.49 1098.47,299.96 C1096.87,303.60 1093.00,315.87 1093.00,317.55 C1093.00,319.69 1105.82,319.63 1106.64,317.48 C1107.32,315.71 1102.31,299.31 1100.80,298.38 C1100.39,298.13 1099.83,298.23 1099.37,298.59 C1099.67,298.22 1099.93,298.00 1100.11,298.00 ZM 1455.89 154.71 C1457.47,154.48 1458.47,154.05 1459.09,153.31 C1460.22,151.97 1460.10,149.59 1459.90,145.36 C1459.87,144.63 1459.83,143.84 1459.80,142.99 L 1459.50 135.50 L 1414.50 135.70 L 1369.50 135.90 L 1369.21 144.03 C1368.94,151.51 1369.08,152.21 1370.96,152.70 C1372.08,152.99 1373.00,153.63 1373.00,154.12 C1373.00,154.60 1379.53,155.00 1387.50,155.00 L 1386.12 155.00 C1373.73,155.00 1369.99,154.69 1369.08,153.60 C1368.34,152.70 1368.02,149.01 1368.21,143.35 L 1368.50 134.50 L 1413.89 134.24 C1446.52,134.06 1459.66,134.30 1460.64,135.11 C1462.41,136.58 1462.54,152.06 1460.80,153.80 C1460.38,154.22 1458.82,154.52 1455.89,154.71 ZM 932.62 418.46 C932.28,417.57 932.00,411.25 932.00,404.42 C932.00,395.23 931.67,391.96 930.75,391.85 C930.06,391.77 927.92,391.65 926.00,391.60 C923.60,391.53 922.50,391.03 922.50,390.00 C922.50,388.77 924.60,388.45 934.25,388.22 C943.86,387.99 946.00,388.19 946.00,389.35 C946.00,390.27 944.40,391.01 941.50,391.45 C936.09,392.26 936.08,392.27 935.75,407.92 C935.59,415.30 935.10,419.47 934.37,419.71 C933.75,419.92 932.97,419.35 932.62,418.46 ZM 839.17 419.46 C839.71,418.86 840.00,413.54 840.00,404.06 C840.00,390.45 840.23,388.00 841.50,388.00 C842.66,388.00 843.00,389.31 843.01,393.75 C843.01,396.91 843.30,403.21 843.65,407.75 L 844.30 416.00 L 851.65 416.00 C858.29,416.00 859.00,416.19 859.00,417.96 C859.00,419.74 858.16,419.96 850.25,420.27 L 843.02 420.55 C841.38,420.41 840.18,420.19 839.75,419.94 C839.53,419.81 839.34,419.66 839.17,419.46 ZM 1417.15 340.58 C1416.20,342.65 1415.36,343.00 1411.27,342.98 C1404.63,342.96 1403.82,342.21 1404.19,336.40 L 1404.50 331.50 L 1410.70 331.20 L 1416.89 330.91 L 1417.57 334.53 C1417.96,336.59 1417.78,339.20 1417.15,340.58 ZM 708.90 419.61 C707.64,421.14 706.68,421.35 705.67,420.33 C705.30,419.97 705.00,412.51 705.00,403.76 L 705.00 387.86 L 707.25 388.18 C709.45,388.49 709.51,388.81 709.78,403.36 C709.97,413.47 709.69,418.67 708.90,419.61 ZM 1158.00 403.93 C1158.00,417.69 1157.15,421.39 1154.25,420.30 C1153.32,419.95 1153.00,415.85 1153.00,404.48 C1153.00,388.99 1153.56,386.56 1156.54,389.04 C1157.69,389.99 1158.00,393.17 1158.00,403.93 ZM 1088.00 393.00 L 1088.00 403.00 L 1092.67 403.00 C1097.98,403.00 1101.00,400.96 1101.00,397.38 C1101.00,394.41 1098.29,393.00 1092.57,393.00 ZM 571.67 402.33 C573.01,403.67 580.36,402.98 582.17,401.35 C584.56,399.18 584.51,395.34 582.07,394.04 C581.00,393.47 578.08,393.00 575.57,393.00 L 571.00 393.00 L 571.00 397.33 C571.00,399.72 571.30,401.97 571.67,402.33 ZM 818.57 407.68 C819.23,405.95 814.72,394.43 813.48,394.67 C811.96,394.96 807.78,407.24 808.94,407.97 C811.12,409.31 818.02,409.10 818.57,407.68 ZM 831.45 144.31 C835.52,148.34 838.29,153.69 841.20,161.91 C842.91,166.75 843.16,169.95 843.06,185.79 C842.97,201.24 842.51,207.09 840.03,214.59 C841.07,210.62 841.09,205.46 841.10,186.72 C841.12,161.21 841.09,160.87 838.57,155.38 C836.39,150.61 834.24,147.13 831.45,144.31 ZM 609.22 407.75 C610.54,409.36 614.14,409.35 616.35,407.74 C617.95,406.56 617.96,406.15 616.53,402.07 C613.77,394.26 612.87,394.05 610.39,400.65 C608.86,404.75 608.51,406.87 609.22,407.75 ZM 773.37 294.81 C773.72,291.68 773.60,288.87 773.11,288.57 C771.73,287.72 771.00,290.58 771.00,296.78 C771.00,303.80 772.52,302.54 773.37,294.81 ZM 413.00 243.60 L 412.50 270.39 L 412.77 244.92 L 413.03 219.45 L 410.05 218.33 C408.85,217.87 407.39,217.97 400.77,220.91 C408.49,217.27 412.67,215.47 412.83,215.72 C413.20,216.32 413.27,228.86 413.00,243.60 ZM 672.35 284.13 C674.07,283.46 674.08,283.31 672.51,282.01 C671.31,281.02 670.37,280.91 669.23,281.63 C665.28,284.12 667.62,285.99 672.35,284.13 ZM 1029.00 304.43 C1029.00,303.13 1026.86,300.00 1025.96,300.00 C1024.54,300.00 1024.79,303.75 1026.25,304.34 C1028.03,305.05 1029.00,305.09 1029.00,304.43 ZM 843.59 420.60 L 850.50 420.56 C855.70,420.52 857.89,420.50 858.82,420.00 C857.89,420.53 855.70,420.60 850.50,420.74 C848.01,420.81 845.54,420.75 843.59,420.60 ZM 575.75 316.85 C579.64,314.11 582.44,308.73 583.40,303.00 C582.61,308.70 579.98,314.04 575.75,316.85 ZM 827.74 233.14 C832.24,229.62 835.75,225.18 838.04,220.00 C836.04,225.05 832.45,229.54 827.74,233.14 ZM 838.63 418.37 C838.09,416.59 838.00,412.86 838.00,404.07 C838.00,410.87 838.24,416.15 838.63,418.37 ZM 1395.46 280.69 C1395.73,280.74 1395.99,280.79 1396.25,280.84 C1396.89,280.98 1397.10,281.98 1396.90,283.49 C1396.98,282.07 1396.51,281.19 1395.46,280.69 ZM 1313.33 295.51 C1310.13,290.31 1307.92,286.76 1306.31,284.32 C1308.28,287.19 1310.70,291.04 1313.33,295.51 ZM 1392.78 291.77 C1393.81,291.34 1394.69,290.25 1395.44,288.48 C1394.42,290.93 1393.92,291.75 1392.78,291.77 ZM 1369.34 293.22 C1368.43,294.21 1367.86,295.57 1367.52,297.74 C1367.67,296.29 1367.84,295.30 1368.02,294.96 C1368.37,294.30 1368.80,293.72 1369.34,293.22 ZM 726.92 278.29 C721.46,278.41 715.46,278.90 714.14,279.55 C715.50,278.86 721.47,278.38 726.92,278.29 ZM 778.87 402.65 C779.41,403.40 779.99,404.19 780.50,404.85 L 782.50 407.46 L 780.25 404.60 C779.73,403.93 779.25,403.25 778.87,402.65 ZM 753.34 278.47 C753.75,278.53 754.03,278.63 754.17,278.77 C754.30,278.90 754.41,279.14 754.50,279.48 C754.26,278.98 753.89,278.65 753.34,278.47 ZM 754.86 283.08 C754.86,283.58 754.84,284.09 754.81,284.61 L 754.50 289.50 L 754.80 284.24 C754.83,283.83 754.85,283.44 754.86,283.08 ZM 336.83 252.31 C340.42,250.52 343.90,248.78 347.26,247.10 C343.22,249.13 338.90,251.28 334.29,253.59 C329.75,255.86 325.29,258.09 320.95,260.27 C326.09,257.69 331.40,255.03 336.83,252.31 ZM 713.94 279.69 C713.59,280.05 713.08,289.19 712.68,301.37 C713.07,289.19 713.58,280.06 713.93,279.70 C713.93,279.70 713.93,279.69 713.94,279.69 ZM 1397.03 336.90 C1396.91,336.52 1396.77,336.11 1396.61,335.65 C1396.15,334.29 1395.75,333.24 1395.34,332.46 C1395.76,333.26 1396.17,334.32 1396.65,335.72 C1396.80,336.14 1396.92,336.54 1397.03,336.90 ZM 412.50 270.39 L 401.00 276.10 C394.67,279.24 371.16,290.96 348.75,302.14 C371.16,290.96 394.67,279.24 401.00,276.10 L 412.50 270.39 ZM 1393.21 341.96 C1393.74,341.81 1394.22,341.67 1394.64,341.54 C1394.05,341.75 1393.34,341.95 1392.52,342.14 C1392.76,342.08 1392.99,342.02 1393.21,341.96 Z" fill="rgb(105,134,170)"/>
<path d="M 0.00 254.50 L 0.00 0.00 L 800.00 0.00 L 1600.00 0.00 L 1600.00 254.50 L 1600.00 509.00 L 800.00 509.00 L 0.00 509.00 L 0.00 254.50 ZM 539.10 414.12 C539.43,410.69 540.11,407.49 540.60,407.00 C541.10,406.52 543.97,405.98 547.00,405.81 C551.09,405.58 552.50,405.11 552.50,404.00 C552.50,402.87 550.89,402.38 546.05,402.00 L 539.60 401.50 L 539.49 397.25 L 539.39 393.00 L 544.45 392.92 C550.80,392.83 552.98,392.42 554.33,391.07 C556.58,388.82 553.30,387.92 543.91,388.21 L 534.50 388.50 L 534.22 403.36 C534.03,413.67 534.31,418.66 535.12,419.65 C537.24,422.19 538.49,420.45 539.10,414.12 ZM 571.00 413.38 L 571.00 408.00 L 574.49 408.00 C577.47,408.00 578.34,408.58 580.49,411.98 C581.87,414.17 583.00,416.39 583.00,416.92 C583.00,418.79 587.27,421.02 588.65,419.88 C589.67,419.03 589.34,417.64 587.03,413.07 L 584.13 407.32 L 586.64 404.81 C588.14,403.31 589.36,400.71 589.68,398.33 C590.12,395.07 589.76,393.84 587.70,391.43 C585.24,388.58 584.93,388.50 575.84,388.50 L 566.50 388.50 L 566.22 403.36 C566.03,413.55 566.31,418.67 567.11,419.63 C569.20,422.15 571.00,419.26 571.00,413.38 ZM 657.43 419.06 C659.95,416.96 658.25,416.00 652.03,416.00 C646.67,416.00 645.95,415.73 643.49,412.80 C641.03,409.88 640.83,409.01 641.18,402.81 C641.69,393.77 642.93,392.56 651.74,392.53 C657.14,392.51 658.53,392.18 658.78,390.88 C659.16,388.92 656.34,388.03 649.70,388.01 C640.43,387.99 636.00,392.76 636.00,402.79 C636.00,410.01 638.65,416.80 642.37,419.15 C645.92,421.37 654.70,421.32 657.43,419.06 ZM 682.69 419.75 C683.14,419.06 683.72,412.65 684.00,405.50 L 684.50 392.50 L 688.20 392.50 C690.23,392.50 692.42,391.98 693.06,391.34 C695.64,388.76 692.78,388.00 680.44,388.00 C670.54,388.00 668.00,388.28 668.00,389.38 C668.00,391.38 670.02,392.56 674.00,392.90 C675.92,393.06 677.72,393.41 678.00,393.68 C678.28,393.94 678.63,399.64 678.79,406.33 C679.10,419.23 679.36,421.00 680.91,421.00 C681.44,421.00 682.25,420.44 682.69,419.75 ZM 708.90 419.61 C709.69,418.67 709.97,413.47 709.78,403.36 C709.51,388.81 709.45,388.49 707.25,388.18 L 705.00 387.86 L 705.00 403.76 C705.00,412.51 705.30,419.97 705.67,420.33 C706.68,421.35 707.64,421.14 708.90,419.61 ZM 741.93 419.54 C743.49,418.73 745.94,416.67 747.38,414.96 C749.70,412.21 750.00,410.98 750.00,404.37 C750.00,392.33 746.29,388.00 735.98,388.00 C730.33,388.00 727.38,389.15 724.77,392.37 C722.35,395.35 722.27,410.95 724.65,414.99 C727.80,420.32 736.16,422.52 741.93,419.54 ZM 768.50 409.99 L 769.50 399.50 L 776.24 409.75 C782.34,419.02 783.27,420.00 786.02,420.00 L 789.05 420.00 L 788.77 403.75 C788.51,388.26 788.41,387.50 786.50,387.50 C784.70,387.50 784.40,388.50 783.50,397.48 L 782.50 407.46 L 780.50 404.85 C779.40,403.41 777.94,401.39 777.26,400.37 C769.45,388.64 768.41,387.50 765.46,387.50 L 762.50 387.50 L 762.22 403.42 C761.94,419.82 762.28,421.38 766.00,420.74 C767.14,420.54 767.74,417.99 768.50,409.99 ZM 859.50 418.00 C859.50,415.59 859.24,415.49 852.25,415.21 L 845.00 414.91 L 844.88 402.96 C844.72,388.11 844.83,388.93 842.83,387.67 C841.62,386.90 840.73,386.98 839.58,387.93 C838.27,389.02 838.00,391.76 838.00,404.07 C838.00,417.13 838.21,419.02 839.75,419.94 C840.71,420.51 845.55,420.87 850.50,420.74 C859.37,420.50 859.50,420.46 859.50,418.00 ZM 910.07 419.96 C911.13,419.40 912.00,418.27 912.00,417.46 C912.00,416.34 910.61,416.00 906.04,416.00 C897.01,416.00 894.31,412.34 895.22,401.30 C895.81,394.21 897.34,393.00 905.72,393.00 C910.61,393.00 912.20,392.63 912.68,391.40 C913.67,388.81 910.97,387.90 903.25,388.23 C896.90,388.50 895.67,388.88 893.26,391.29 C890.82,393.73 890.47,394.90 890.16,401.90 C889.74,411.15 891.55,416.15 896.42,419.11 C899.80,421.17 906.97,421.62 910.07,419.96 ZM 936.80 419.80 C937.61,418.99 938.00,414.42 938.00,405.80 L 938.00 393.00 L 941.96 393.00 C944.83,393.00 946.21,392.48 946.94,391.11 C948.79,387.66 946.16,386.91 933.36,387.22 L 921.50 387.50 L 921.50 390.00 C921.50,392.27 921.93,392.53 926.25,392.80 L 931.00 393.11 L 931.00 405.85 C931.00,418.35 931.61,421.00 934.50,421.00 C935.10,421.00 936.14,420.46 936.80,419.80 ZM 977.09 419.45 C982.23,416.80 983.99,412.63 984.00,403.15 C984.00,394.99 983.92,394.72 980.60,391.40 C977.53,388.33 976.65,388.00 971.50,388.00 C964.61,388.00 959.58,390.19 958.06,393.86 C956.52,397.58 956.45,408.79 957.94,413.32 C960.10,419.86 970.11,423.07 977.09,419.45 ZM 1035.25 417.21 C1037.68,414.78 1038.38,413.25 1038.30,410.47 C1038.15,405.42 1035.79,403.34 1028.25,401.62 C1021.71,400.13 1020.04,398.96 1020.02,395.86 C1019.99,393.64 1022.05,393.00 1029.11,393.00 C1033.55,393.00 1035.21,392.61 1035.65,391.46 C1035.98,390.61 1035.98,389.64 1035.65,389.31 C1034.64,388.30 1025.33,387.72 1021.56,388.42 C1017.09,389.26 1014.51,393.57 1015.46,398.63 C1016.21,402.61 1018.64,404.42 1025.50,406.08 C1033.19,407.94 1034.88,410.27 1031.34,414.17 C1030.02,415.63 1028.19,416.00 1022.26,416.00 C1016.77,416.00 1014.94,416.33 1015.25,417.25 C1016.06,419.71 1020.45,421.09 1026.30,420.72 C1031.22,420.42 1032.57,419.89 1035.25,417.21 ZM 1069.84 419.60 C1070.43,419.23 1070.66,418.28 1070.35,417.47 C1069.92,416.36 1067.97,416.00 1062.39,416.00 L 1055.00 416.00 L 1055.00 411.00 L 1055.00 406.00 L 1061.03 406.00 C1065.64,406.00 1067.21,405.62 1067.68,404.40 C1068.56,402.09 1066.24,401.03 1060.25,401.02 L 1055.00 401.00 L 1055.00 396.50 L 1055.00 392.00 L 1061.88 392.00 C1066.41,392.00 1069.13,391.54 1069.87,390.66 C1071.72,388.43 1070.10,388.00 1059.83,388.00 L 1050.00 388.00 L 1050.00 403.83 C1050.00,412.54 1050.34,420.02 1050.75,420.44 C1051.61,421.34 1068.22,420.60 1069.84,419.60 ZM 1086.80 419.80 C1087.46,419.14 1088.00,416.19 1088.00,413.24 L 1088.00 407.87 L 1091.23 408.19 C1093.99,408.45 1095.00,409.38 1098.09,414.50 C1104.00,424.31 1108.22,422.89 1103.38,412.72 C1101.28,408.31 1100.84,406.56 1101.77,406.25 C1105.13,405.12 1107.17,396.05 1104.99,391.98 C1103.65,389.48 1098.04,388.01 1089.75,388.01 L 1083.00 388.00 L 1083.00 403.83 C1083.00,421.09 1083.48,423.12 1086.80,419.80 ZM 1158.00 403.93 C1158.00,393.17 1157.69,389.99 1156.54,389.04 C1153.56,386.56 1153.00,388.99 1153.00,404.48 C1153.00,415.85 1153.32,419.95 1154.25,420.30 C1157.15,421.39 1158.00,417.69 1158.00,403.93 ZM 1191.43 419.06 C1193.97,416.95 1192.24,416.00 1185.89,416.00 C1180.70,416.00 1179.58,415.65 1177.45,413.35 C1175.36,411.10 1175.00,409.73 1175.00,404.08 C1175.00,394.58 1176.35,393.00 1184.43,393.00 C1188.97,393.00 1191.12,392.55 1192.06,391.42 C1193.99,389.10 1191.70,388.03 1184.70,388.02 C1173.92,387.99 1169.96,392.37 1170.05,404.22 C1170.14,415.72 1175.05,421.24 1184.69,420.66 C1187.54,420.49 1190.58,419.77 1191.43,419.06 ZM 1224.80 419.80 C1227.58,417.02 1226.07,416.09 1218.25,415.79 L 1210.50 415.50 L 1210.20 410.75 L 1209.89 406.00 L 1215.32 406.00 C1218.86,406.00 1221.18,405.49 1221.96,404.54 C1224.00,402.09 1222.15,401.00 1215.94,401.00 L 1210.00 401.00 L 1210.00 396.54 L 1210.00 392.08 L 1217.75 391.79 C1223.84,391.56 1225.50,391.18 1225.50,390.00 C1225.50,388.78 1223.57,388.45 1215.25,388.22 L 1205.00 387.93 L 1205.00 403.80 C1205.00,412.53 1205.30,419.97 1205.67,420.33 C1206.87,421.54 1223.53,421.07 1224.80,419.80 ZM 1255.10 418.72 C1258.07,416.73 1258.54,415.82 1258.81,411.64 C1258.98,408.94 1258.59,406.22 1257.93,405.41 C1257.27,404.62 1253.64,403.04 1249.85,401.89 C1237.89,398.25 1238.35,393.00 1250.63,393.00 C1260.58,393.00 1260.66,389.34 1250.73,388.31 C1244.10,387.63 1240.64,388.36 1237.97,391.03 C1232.95,396.05 1237.62,404.01 1246.96,406.34 C1253.38,407.95 1254.91,409.71 1253.19,413.49 C1252.02,416.05 1251.73,416.13 1244.53,415.86 C1236.57,415.56 1235.00,416.09 1236.93,418.42 C1239.61,421.65 1250.47,421.83 1255.10,418.72 ZM 604.56 416.50 L 606.03 413.00 L 613.00 413.00 L 619.97 413.00 L 621.44 416.50 C622.91,420.02 625.62,421.16 626.58,418.65 C626.87,417.91 624.67,410.82 621.71,402.90 C616.43,388.79 616.26,388.49 613.15,388.19 C611.19,387.99 609.82,388.37 609.55,389.19 C609.31,389.91 606.81,396.69 603.99,404.25 C601.18,411.81 599.16,418.44 599.50,419.00 C600.77,421.06 603.15,419.89 604.56,416.50 ZM 805.56 416.50 L 807.03 413.00 L 814.06 413.00 L 821.10 413.00 L 822.56 416.50 C824.00,419.92 826.24,421.04 827.53,418.96 C827.88,418.38 826.61,413.77 824.71,408.71 C822.81,403.64 820.36,397.02 819.27,394.00 C817.53,389.15 816.94,388.46 814.29,388.20 C810.87,387.85 811.40,386.89 804.93,405.00 C799.23,420.98 799.42,420.00 801.93,420.00 C803.47,420.00 804.53,418.97 805.56,416.50 ZM 1135.64 406.00 C1141.97,389.49 1142.16,388.59 1139.35,388.19 C1137.63,387.95 1136.90,388.73 1135.62,392.19 C1134.75,394.56 1133.13,398.98 1132.02,402.00 C1130.90,405.02 1129.54,408.17 1129.00,409.00 C1127.63,411.06 1126.82,409.71 1122.88,398.76 C1119.57,389.56 1118.02,387.39 1115.47,388.37 C1114.26,388.84 1114.15,389.41 1114.96,390.92 C1115.53,391.99 1117.84,398.41 1120.09,405.18 C1124.65,418.88 1125.41,420.23 1128.39,419.80 C1130.05,419.56 1131.49,416.83 1135.64,406.00 ZM 285.75 405.08 L 308.00 393.93 L 308.00 358.20 L 308.00 322.47 L 348.75 302.14 C371.16,290.96 394.67,279.24 401.00,276.10 L 412.50 270.39 L 413.00 243.60 C413.27,228.86 413.20,216.32 412.83,215.72 C412.41,215.05 384.17,228.64 336.83,252.31 C295.40,273.03 260.69,290.61 259.71,291.38 C258.01,292.71 257.92,296.29 257.98,354.52 C258.01,388.48 258.27,416.63 258.56,417.09 C259.28,418.26 260.80,417.59 285.75,405.08 ZM 499.00 402.44 C499.00,401.06 494.42,400.91 456.89,401.07 C433.73,401.16 413.82,401.53 412.64,401.87 C408.67,403.04 423.99,403.64 461.75,403.82 C494.88,403.98 499.00,403.83 499.00,402.44 ZM 1462.00 402.50 C1462.00,401.84 1432.16,401.41 1375.00,401.24 C1327.15,401.10 1288.00,401.37 1288.00,401.83 C1288.00,402.29 1288.30,402.97 1288.67,403.34 C1289.80,404.47 1462.00,403.63 1462.00,402.50 ZM 226.21 398.75 C226.33,398.06 226.45,369.83 226.46,336.00 L 226.50 274.50 L 258.50 258.50 L 290.50 242.50 L 290.16 179.50 C289.98,144.85 289.53,109.07 289.16,100.00 L 288.50 83.50 L 286.07 83.77 C284.73,83.92 282.17,85.16 280.38,86.52 C278.60,87.88 276.80,89.00 276.40,89.00 C274.67,89.00 262.30,94.41 260.12,96.13 C258.80,97.16 257.18,98.00 256.51,98.00 C255.83,98.00 247.58,101.82 238.17,106.50 C228.76,111.18 220.76,115.00 220.38,115.00 C220.00,115.00 218.30,116.04 216.59,117.31 C212.28,120.52 204.98,124.61 202.00,125.47 C200.62,125.87 190.50,130.60 179.50,135.98 C168.50,141.37 155.23,147.78 150.00,150.24 C144.77,152.70 138.09,156.35 135.15,158.36 C132.21,160.36 129.12,162.00 128.28,162.00 C127.45,162.00 124.23,163.53 121.13,165.39 C118.03,167.26 113.19,169.76 110.37,170.96 L 105.24 173.14 L 104.61 182.32 C104.27,187.37 103.71,224.00 103.36,263.73 C102.78,330.65 102.86,336.01 104.41,336.60 C106.16,337.28 151.61,315.37 152.34,313.50 C152.56,312.95 152.40,288.65 152.00,259.50 C151.43,218.32 151.55,206.05 152.50,204.50 C153.78,202.42 232.91,162.36 236.50,161.98 C241.14,161.49 241.00,160.75 240.98,186.25 C240.98,199.59 240.55,211.17 240.03,211.98 C239.52,212.80 224.56,220.67 206.80,229.48 C179.49,243.02 174.40,245.89 173.85,248.00 C173.49,249.38 173.15,277.77 173.10,311.10 C173.01,367.64 173.12,371.79 174.75,373.18 C175.71,374.00 186.62,379.99 199.00,386.50 C211.38,393.00 222.18,398.68 223.00,399.13 C225.13,400.28 225.97,400.18 226.21,398.75 ZM 352.00 373.41 C367.12,365.92 381.75,358.63 384.50,357.20 C387.25,355.76 409.30,344.65 433.50,332.49 L 477.50 310.39 L 478.11 277.95 C479.03,229.29 479.07,171.66 478.19,170.27 C477.76,169.60 468.88,164.61 458.45,159.18 C448.03,153.76 436.12,147.51 432.00,145.29 C420.77,139.25 386.64,121.58 348.50,102.04 C338.05,96.69 325.34,89.99 320.25,87.15 C305.80,79.10 306.92,77.20 307.23,109.23 L 307.50 136.45 L 322.00 144.30 C329.98,148.61 341.67,154.86 348.00,158.19 C354.33,161.52 362.88,166.05 367.00,168.24 C386.64,178.71 391.26,181.16 401.50,186.51 C418.56,195.42 425.35,199.19 427.25,200.82 C428.86,202.19 429.00,205.34 429.00,240.00 C429.00,274.66 428.86,277.81 427.25,279.17 C426.29,279.98 404.35,291.11 378.50,303.89 C352.65,316.67 329.48,328.20 327.00,329.51 L 322.50 331.89 L 322.23 358.18 C321.97,383.91 322.13,387.00 323.72,387.00 C324.15,387.01 336.88,380.89 352.00,373.41 ZM 688.34 341.17 C693.50,338.89 698.55,333.27 699.94,328.28 C700.52,326.20 700.99,317.84 700.99,309.70 C701.00,293.77 700.41,291.32 695.20,285.75 C688.97,279.09 673.02,276.89 663.50,281.38 C653.79,285.96 651.96,289.74 651.25,306.73 C650.26,330.14 654.28,338.84 667.85,342.67 C673.62,344.30 682.79,343.63 688.34,341.17 ZM 845.12 342.46 C855.60,338.77 860.00,332.93 860.00,322.73 C859.99,312.83 855.73,309.18 839.17,304.90 C831.51,302.91 830.71,302.46 829.20,299.30 C827.73,296.21 827.72,295.59 829.07,293.18 C830.54,290.58 830.86,290.50 839.54,290.52 C844.47,290.53 849.80,290.76 851.38,291.02 C853.90,291.44 854.51,291.02 856.26,287.68 C857.42,285.48 857.89,283.49 857.38,282.98 C855.58,281.19 844.29,278.95 837.90,279.12 C828.64,279.37 820.17,283.25 817.75,288.37 C814.33,295.60 816.42,307.03 821.87,310.91 C823.32,311.94 828.56,314.00 833.50,315.49 C845.24,319.02 847.00,320.18 847.00,324.35 C847.00,329.69 843.46,332.23 835.80,332.38 C832.34,332.44 826.99,332.14 823.93,331.70 L 818.37 330.90 L 817.20 334.69 C815.69,339.62 816.72,340.64 825.06,342.44 C833.68,344.31 839.84,344.32 845.12,342.46 ZM 901.76 341.12 C903.92,340.02 907.07,337.54 908.77,335.61 C914.29,329.32 914.09,315.58 908.42,311.11 C905.29,308.65 899.28,306.44 891.81,304.99 C888.68,304.38 884.97,302.98 883.56,301.87 C880.37,299.36 880.16,294.84 883.09,291.91 C884.98,290.02 886.07,289.85 894.34,290.23 C899.38,290.45 904.27,290.99 905.21,291.41 C906.50,291.99 907.42,291.36 908.96,288.84 C910.08,287.00 910.99,284.76 911.00,283.85 C911.00,281.50 902.44,279.55 892.00,279.52 C877.97,279.49 870.22,284.70 869.24,294.81 C868.22,305.46 872.42,310.72 885.45,315.10 C890.21,316.69 894.72,318.00 895.49,318.00 C897.36,318.00 900.00,321.91 900.00,324.67 C900.00,325.89 898.93,328.13 897.63,329.64 C895.52,332.10 894.57,332.40 888.88,332.45 C885.37,332.48 880.00,332.17 876.95,331.76 L 871.39 331.03 L 870.20 334.34 C869.54,336.15 869.00,338.14 869.00,338.74 C869.00,339.88 876.24,342.56 881.50,343.36 C887.50,344.28 897.79,343.15 901.76,341.12 ZM 988.71 341.13 C993.35,338.75 997.48,334.50 999.06,330.50 C999.71,328.85 1000.47,320.93 1000.75,312.90 C1001.36,295.49 1000.10,290.05 994.26,284.92 C988.96,280.27 985.06,279.00 976.06,279.00 C969.81,279.00 966.90,279.52 962.78,281.36 C952.59,285.90 951.00,289.75 951.00,309.84 C951.00,325.87 952.12,331.37 956.27,335.78 C959.42,339.14 964.77,342.25 968.92,343.13 C974.46,344.31 984.50,343.30 988.71,341.13 ZM 1215.77 341.10 C1223.73,337.01 1227.62,329.82 1226.76,320.81 C1225.90,311.88 1221.18,307.96 1208.13,305.35 C1199.21,303.56 1195.00,300.80 1195.00,296.74 C1195.00,291.99 1197.20,290.58 1205.21,290.17 C1209.29,289.97 1214.25,290.25 1216.24,290.80 C1220.24,291.91 1221.53,291.05 1223.78,285.77 C1225.17,282.49 1224.27,281.82 1216.20,280.12 C1206.77,278.13 1198.19,278.72 1192.06,281.78 C1185.43,285.10 1183.00,289.12 1183.00,296.78 C1183.00,306.97 1187.45,311.47 1202.05,316.06 C1214.73,320.05 1216.75,322.91 1211.25,329.02 C1208.14,332.48 1204.03,333.03 1191.81,331.62 L 1185.13 330.85 L 1183.56 333.88 C1182.70,335.54 1182.00,337.56 1182.00,338.37 C1182.00,339.84 1188.53,342.45 1194.50,343.36 C1200.44,344.28 1211.98,343.05 1215.77,341.10 ZM 1388.60 342.91 C1397.31,341.39 1398.31,340.50 1396.65,335.72 C1394.71,330.13 1394.08,329.79 1388.03,331.09 C1385.11,331.71 1380.44,332.01 1377.67,331.74 C1373.60,331.35 1372.07,330.65 1369.81,328.11 C1367.01,324.98 1367.00,324.93 1367.00,310.71 C1367.00,295.06 1367.54,293.26 1372.88,291.05 C1375.85,289.82 1385.82,290.06 1391.19,291.49 C1393.61,292.14 1394.04,291.84 1395.44,288.48 C1397.11,284.49 1397.47,281.10 1396.25,280.84 C1388.40,279.20 1373.86,278.73 1369.60,279.97 C1363.41,281.77 1358.27,285.55 1356.02,289.96 C1354.24,293.46 1354.00,295.84 1354.00,310.26 C1354.00,325.75 1354.13,326.87 1356.53,331.69 C1361.60,341.85 1372.60,345.70 1388.60,342.91 ZM 548.78 331.75 L 549.07 321.00 L 555.48 321.00 C563.01,321.00 571.42,319.39 575.11,317.25 C584.70,311.68 586.69,293.49 578.60,285.40 C573.19,279.99 565.95,278.97 539.75,279.90 L 537.00 280.00 L 537.00 310.83 C537.00,327.79 537.32,341.99 537.71,342.38 C538.10,342.77 540.69,342.96 543.46,342.79 L 548.50 342.50 L 548.78 331.75 ZM 605.80 341.80 C606.59,341.01 607.00,336.87 607.00,329.80 L 607.00 319.00 L 611.75 319.02 L 616.50 319.05 L 619.22 324.77 C620.72,327.92 623.79,333.31 626.05,336.75 L 630.16 343.00 L 635.52 343.00 C638.47,343.00 641.18,342.52 641.54,341.93 C642.26,340.77 637.89,332.05 632.44,323.76 C630.55,320.89 629.02,318.31 629.04,318.02 C629.06,317.74 630.84,316.28 632.99,314.79 C638.43,311.04 640.36,306.89 640.39,298.94 C640.44,283.78 631.39,278.50 607.15,279.52 C600.91,279.79 595.40,280.25 594.90,280.56 C593.87,281.20 593.64,341.31 594.67,342.33 C595.81,343.48 604.54,343.06 605.80,341.80 ZM 726.00 330.00 L 726.50 317.50 L 739.00 317.00 L 751.50 316.50 L 751.50 311.00 L 751.50 305.50 L 738.75 305.22 L 726.00 304.94 L 726.00 297.50 L 726.00 290.05 L 740.25 289.78 L 754.50 289.50 L 754.81 284.61 C754.98,281.92 754.70,279.30 754.17,278.77 C753.58,278.18 750.38,278.26 745.56,278.99 C739.72,279.88 737.55,279.87 736.49,278.99 C734.92,277.69 715.28,278.30 713.93,279.70 C713.50,280.14 712.83,293.88 712.43,310.23 C711.86,334.01 711.98,340.27 713.02,341.52 C713.98,342.68 715.78,343.01 719.91,342.80 L 725.50 342.50 L 726.00 330.00 ZM 806.80 337.25 L 807.10 332.00 L 793.16 332.00 C782.86,332.00 779.12,331.67 778.85,330.75 C778.66,330.06 778.50,326.58 778.50,323.00 L 778.50 316.50 L 790.50 316.00 L 802.50 315.50 L 802.50 310.50 L 802.50 305.50 L 790.50 305.00 L 778.50 304.50 L 778.21 297.25 L 777.91 290.00 L 791.26 290.00 C800.30,290.00 804.99,289.61 805.80,288.80 C807.34,287.26 807.36,281.34 805.83,280.39 C805.18,280.00 796.07,279.72 785.58,279.78 L 766.50 279.88 L 766.23 310.18 C766.09,326.84 766.19,341.06 766.46,341.76 C766.84,342.76 771.37,342.98 786.73,342.77 L 806.50 342.50 L 806.80 337.25 ZM 936.93 341.58 C937.79,340.55 938.01,332.31 937.73,310.78 C937.52,294.61 937.05,280.90 936.69,280.30 C936.32,279.70 933.65,279.28 930.76,279.36 L 925.50 279.50 L 925.23 309.99 C925.09,326.76 925.19,341.05 925.45,341.74 C926.14,343.52 935.43,343.40 936.93,341.58 ZM 1025.80 341.80 C1026.64,340.96 1027.00,335.42 1027.00,323.30 C1027.00,313.79 1027.38,306.00 1027.84,306.00 C1029.50,306.00 1033.61,312.08 1042.89,328.24 C1044.21,330.53 1046.82,334.81 1048.70,337.75 L 1052.12 343.10 L 1057.81 342.80 L 1063.50 342.50 L 1063.76 311.32 C1064.02,280.62 1064.00,280.13 1061.97,279.49 C1060.84,279.13 1058.13,279.14 1055.96,279.51 L 1052.00 280.18 L 1052.00 298.53 C1052.00,308.90 1051.59,317.13 1051.06,317.46 C1050.54,317.78 1048.58,315.45 1046.70,312.27 C1034.58,291.84 1028.55,282.28 1026.79,280.75 C1024.12,278.42 1015.48,278.31 1014.61,280.58 C1014.27,281.45 1014.00,295.31 1014.00,311.38 C1014.00,332.77 1014.32,340.92 1015.20,341.80 C1015.86,342.46 1018.24,343.00 1020.50,343.00 C1022.76,343.00 1025.14,342.46 1025.80,341.80 ZM 1084.36 340.75 C1085.13,339.51 1086.55,336.36 1087.52,333.75 L 1089.27 329.00 L 1099.89 329.01 L 1110.50 329.01 L 1113.67 336.01 L 1116.84 343.00 L 1121.30 343.00 C1128.35,343.00 1128.69,341.70 1124.51,330.84 C1120.47,320.33 1113.06,299.38 1109.30,287.83 L 1106.81 280.17 L 1100.80 279.83 C1097.50,279.65 1094.39,279.76 1093.88,280.07 C1093.14,280.53 1076.13,328.54 1074.25,335.50 C1073.95,336.60 1073.28,338.06 1072.74,338.74 C1070.72,341.33 1072.76,343.00 1077.95,343.00 C1082.06,343.00 1083.20,342.60 1084.36,340.75 ZM 1176.73 341.52 C1177.18,340.71 1177.39,338.24 1177.18,336.05 L 1176.80 332.06 L 1163.15 331.78 L 1149.50 331.50 L 1149.00 305.50 L 1148.50 279.50 L 1143.00 279.50 L 1137.50 279.50 L 1137.23 309.99 C1137.09,326.76 1137.19,341.05 1137.45,341.74 C1138.22,343.74 1175.60,343.53 1176.73,341.52 ZM 1274.76 311.57 C1274.97,287.49 1274.75,280.46 1273.76,279.83 C1271.38,278.32 1263.26,278.87 1262.61,280.58 C1261.80,282.67 1261.82,339.37 1262.62,341.46 C1263.12,342.75 1264.42,343.03 1268.87,342.80 L 1274.50 342.50 L 1274.76 311.57 ZM 1303.10 324.00 C1303.43,313.83 1303.77,305.35 1303.85,305.17 C1304.23,304.35 1309.13,311.39 1314.51,320.50 C1317.76,326.00 1322.41,333.33 1324.83,336.80 L 1329.24 343.10 L 1334.37 342.80 L 1339.50 342.50 L 1340.00 312.24 C1340.28,295.60 1340.35,281.54 1340.17,280.99 C1339.98,280.45 1337.17,280.00 1333.92,280.00 L 1328.00 280.00 L 1328.00 298.50 C1328.00,308.84 1327.60,317.00 1327.10,317.00 C1326.36,317.00 1321.45,309.33 1313.50,295.80 C1308.02,286.46 1303.41,279.75 1301.93,278.96 C1299.58,277.70 1291.29,277.72 1290.51,278.98 C1289.74,280.23 1288.98,339.78 1289.71,341.68 C1290.11,342.73 1291.82,343.01 1296.37,342.79 L 1302.50 342.50 L 1303.10 324.00 ZM 1417.15 340.58 C1417.78,339.20 1417.96,336.59 1417.57,334.53 L 1416.89 330.91 L 1410.70 331.20 L 1404.50 331.50 L 1404.19 336.40 C1403.82,342.21 1404.63,342.96 1411.27,342.98 C1415.36,343.00 1416.20,342.65 1417.15,340.58 ZM 804.82 242.03 C820.45,240.23 833.46,231.60 838.04,220.00 C842.28,209.23 842.95,204.69 843.06,185.79 C843.16,169.95 842.91,166.75 841.20,161.91 C835.78,146.60 830.84,141.25 817.13,135.83 C806.18,131.50 786.01,131.17 773.66,135.11 C751.30,142.24 745.00,153.87 745.00,188.00 C745.00,210.37 747.46,220.20 755.12,228.51 C765.85,240.16 782.27,244.62 804.82,242.03 ZM 1065.75 242.00 C1074.21,240.90 1082.90,238.52 1085.55,236.59 C1087.35,235.27 1087.35,235.07 1085.56,229.37 C1081.47,216.35 1082.28,216.98 1073.15,219.66 C1069.39,220.76 1063.49,221.35 1055.50,221.41 C1044.03,221.50 1043.29,221.38 1038.65,218.65 C1034.79,216.38 1033.26,214.64 1031.15,210.15 C1028.59,204.69 1028.50,203.88 1028.50,186.50 C1028.50,169.16 1028.59,168.34 1031.00,164.04 C1032.38,161.58 1034.98,158.58 1036.79,157.36 C1043.53,152.82 1057.50,151.77 1073.14,154.63 C1078.05,155.53 1082.29,156.05 1082.56,155.78 C1083.13,155.20 1087.00,141.50 1087.00,140.05 C1087.00,135.53 1058.52,130.83 1043.68,132.91 C1022.66,135.84 1012.13,142.83 1006.26,157.72 C1003.63,164.37 1003.58,164.93 1003.54,188.00 L 1003.50 211.50 L 1006.90 218.75 C1015.81,237.75 1036.25,245.83 1065.75,242.00 ZM 558.85 239.68 C559.51,238.88 560.06,232.23 560.22,222.93 L 560.50 207.50 L 576.50 206.86 C595.09,206.13 597.40,205.73 605.65,201.87 C612.76,198.55 617.26,193.86 620.82,186.09 C622.97,181.38 623.33,179.16 623.33,170.54 C623.33,161.68 623.00,159.75 620.52,154.23 C616.03,144.22 608.44,138.54 595.59,135.56 C586.79,133.52 538.83,133.26 537.26,135.25 C536.26,136.51 534.76,237.25 535.70,239.75 C536.38,241.56 557.34,241.50 558.85,239.68 ZM 665.19 240.75 C665.30,240.61 665.64,232.18 665.94,222.00 L 666.50 203.50 L 675.10 203.21 L 683.70 202.93 L 690.71 214.71 C694.56,221.20 699.83,229.76 702.41,233.75 L 707.10 241.00 L 720.05 241.00 C730.57,241.00 733.00,240.73 733.00,239.58 C733.00,238.34 716.88,213.49 709.99,204.11 C708.39,201.93 707.92,200.57 708.66,200.30 C712.29,199.02 719.47,193.18 722.08,189.39 C730.73,176.81 729.93,155.57 720.41,145.03 C716.96,141.22 708.80,137.31 699.74,135.14 C693.55,133.66 643.83,133.57 642.36,135.04 C641.37,136.03 641.52,236.74 642.52,239.75 C642.82,240.65 646.03,241.00 653.97,241.00 C660.04,241.00 665.09,240.89 665.19,240.75 ZM 887.00 220.00 L 887.50 199.50 L 910.19 199.50 C925.25,199.50 933.25,199.13 933.98,198.41 C934.67,197.73 934.97,193.94 934.79,188.41 L 934.50 179.50 L 910.75 179.23 L 887.00 178.96 L 887.00 166.48 L 887.00 154.00 L 912.89 154.00 C942.47,154.00 940.00,154.91 940.00,144.00 C940.00,132.96 944.00,134.00 901.52,134.00 C871.52,134.00 864.03,134.26 863.13,135.34 C862.32,136.32 862.19,151.06 862.67,188.87 L 863.33 241.06 L 874.91 240.78 L 886.50 240.50 L 887.00 220.00 ZM 982.76 187.25 L 983.02 134.00 L 971.54 134.00 C961.22,134.00 959.97,134.19 959.04,135.93 C957.44,138.92 957.62,238.22 959.23,239.83 C960.09,240.69 963.76,240.98 971.48,240.78 L 982.50 240.50 L 982.76 187.25 ZM 1131.89 239.64 C1132.70,238.65 1132.95,223.87 1132.76,186.39 L 1132.50 134.50 L 1120.50 134.50 L 1108.50 134.50 L 1108.24 186.39 C1108.05,223.87 1108.30,238.65 1109.11,239.64 C1109.93,240.63 1113.06,241.00 1120.50,241.00 C1127.94,241.00 1131.07,240.63 1131.89,239.64 ZM 1236.39 239.42 C1236.73,238.55 1237.00,234.26 1237.00,229.89 C1237.00,223.37 1236.70,221.82 1235.32,221.29 C1234.40,220.94 1222.59,220.62 1209.07,220.58 L 1184.50 220.50 L 1184.50 209.00 L 1184.50 197.50 L 1208.00 197.00 L 1231.50 196.50 L 1231.50 187.00 L 1231.50 177.50 L 1208.00 177.00 L 1184.50 176.50 L 1184.50 165.50 L 1184.50 154.50 L 1210.29 154.23 L 1236.07 153.97 L 1235.79 144.23 L 1235.50 134.50 L 1197.50 134.50 L 1159.50 134.50 L 1159.24 186.50 C1159.10,215.10 1159.20,239.06 1159.46,239.75 C1159.83,240.72 1168.44,241.00 1197.86,241.00 C1231.52,241.00 1235.85,240.82 1236.39,239.42 ZM 1282.39 239.42 C1282.73,238.55 1283.00,224.15 1283.00,207.42 C1283.00,189.03 1283.37,177.00 1283.94,177.00 C1284.46,177.00 1287.74,181.16 1291.23,186.25 C1294.73,191.34 1300.68,200.00 1304.45,205.50 C1308.23,211.00 1314.25,219.77 1317.83,225.00 C1321.41,230.23 1325.44,235.96 1326.79,237.75 L 1329.24 241.00 L 1339.98 241.00 L 1350.72 241.00 L 1351.35 235.75 C1351.70,232.86 1351.99,209.33 1351.99,183.45 C1352.00,148.18 1351.70,136.10 1350.80,135.20 C1349.17,133.57 1330.83,133.57 1329.20,135.20 C1328.32,136.08 1328.00,144.71 1328.00,167.78 C1328.00,186.07 1327.62,199.03 1327.10,198.83 C1326.60,198.65 1321.18,191.07 1315.05,182.00 C1305.28,167.52 1294.79,152.26 1284.99,138.22 L 1282.00 133.93 L 1270.75 134.22 L 1259.50 134.50 L 1259.24 186.50 C1259.10,215.10 1259.20,239.06 1259.46,239.75 C1259.80,240.64 1263.04,241.00 1270.86,241.00 C1279.90,241.00 1281.89,240.73 1282.39,239.42 ZM 1426.00 198.00 L 1426.00 155.00 L 1442.80 155.00 C1454.53,155.00 1459.96,154.64 1460.80,153.80 C1462.54,152.06 1462.41,136.58 1460.64,135.11 C1459.66,134.30 1446.52,134.06 1413.89,134.24 L 1368.50 134.50 L 1368.21 143.35 C1368.02,149.01 1368.34,152.70 1369.08,153.60 C1369.99,154.69 1373.73,155.00 1386.12,155.00 L 1402.00 155.00 L 1402.00 197.33 C1402.00,220.62 1402.30,239.97 1402.67,240.33 C1403.03,240.70 1408.43,241.00 1414.67,241.00 L 1426.00 241.00 L 1426.00 198.00 ZM 571.67 402.33 C571.30,401.97 571.00,399.72 571.00,397.33 L 571.00 393.00 L 575.57 393.00 C578.08,393.00 581.00,393.47 582.07,394.04 C584.51,395.34 584.56,399.18 582.17,401.35 C580.36,402.98 573.01,403.67 571.67,402.33 ZM 730.07 413.37 C728.41,411.25 728.00,409.30 728.00,403.42 C728.00,397.00 728.27,395.92 730.22,394.56 C732.96,392.64 739.97,392.52 742.46,394.35 C744.49,395.83 745.76,404.85 744.59,409.48 C742.91,416.19 734.14,418.54 730.07,413.37 ZM 964.07 413.37 C962.43,411.28 962.00,409.30 962.00,403.87 C962.00,395.11 963.72,393.00 970.85,393.00 C977.65,393.00 979.00,394.77 979.00,403.69 C979.00,412.96 976.90,416.00 970.50,416.00 C966.99,416.00 965.74,415.49 964.07,413.37 ZM 1088.00 398.00 L 1088.00 393.00 L 1092.57 393.00 C1098.29,393.00 1101.00,394.41 1101.00,397.38 C1101.00,400.96 1097.98,403.00 1092.67,403.00 L 1088.00 403.00 L 1088.00 398.00 ZM 609.22 407.75 C608.51,406.87 608.86,404.75 610.39,400.65 C612.87,394.05 613.77,394.26 616.53,402.07 C617.96,406.15 617.95,406.56 616.35,407.74 C614.14,409.35 610.54,409.36 609.22,407.75 ZM 810.38 403.85 C811.03,400.60 812.65,398.00 814.02,398.00 C814.87,398.00 817.00,403.47 817.00,405.65 C817.00,406.54 815.75,407.00 813.38,407.00 C809.84,407.00 809.77,406.92 810.38,403.85 ZM 669.87 331.32 C664.74,328.13 664.00,325.45 664.00,310.02 L 664.00 295.85 L 666.92 292.92 C669.42,290.42 670.62,290.00 675.17,290.00 C681.91,290.01 686.55,292.65 687.87,297.21 C688.40,299.02 688.71,305.98 688.58,312.67 C688.30,326.41 687.27,329.15 681.45,331.58 C677.04,333.43 673.13,333.34 669.87,331.32 ZM 970.31 331.54 C964.96,329.21 964.00,325.93 964.00,309.97 L 964.00 295.85 L 966.92 292.92 C969.39,290.45 970.64,290.00 974.97,290.00 C980.61,290.00 985.38,291.97 986.97,294.94 C988.47,297.75 988.27,323.91 986.72,327.00 C985.28,329.88 979.65,333.01 976.00,332.96 C974.62,332.94 972.07,332.30 970.31,331.54 ZM 549.43 308.67 C549.14,307.93 549.05,303.55 549.21,298.92 L 549.50 290.50 L 555.92 290.20 C566.08,289.72 571.00,292.85 571.00,299.79 C571.00,304.18 569.59,306.64 566.02,308.49 C562.25,310.44 550.16,310.57 549.43,308.67 ZM 611.75 308.20 L 607.00 307.89 L 607.00 298.95 L 607.00 290.00 L 614.05 290.00 C624.65,290.00 628.00,292.26 628.00,299.41 C628.00,305.53 621.87,308.84 611.75,308.20 ZM 1093.00 317.55 C1093.00,315.69 1097.71,300.93 1098.88,299.12 C1099.38,298.36 1100.24,298.03 1100.80,298.38 C1102.31,299.31 1107.32,315.71 1106.64,317.48 C1105.82,319.63 1093.00,319.69 1093.00,317.55 ZM 784.68 221.05 C779.87,219.49 774.85,214.92 772.68,210.11 C770.83,206.00 770.60,203.54 770.56,187.50 C770.51,168.13 771.20,164.29 775.67,158.98 C779.20,154.78 787.15,152.64 797.03,153.21 C805.83,153.72 810.25,155.76 813.74,160.94 C817.18,166.05 817.99,170.43 817.99,184.11 C818.01,212.30 812.90,220.70 795.21,221.58 C790.97,221.79 786.23,221.55 784.68,221.05 ZM 563.88 186.35 C561.56,185.94 561.20,185.31 560.64,180.70 C559.83,173.92 559.83,161.11 560.64,157.03 L 561.29 153.82 L 575.47 154.16 C589.15,154.49 589.79,154.60 593.25,157.24 C597.69,160.63 599.43,165.54 598.70,172.62 C598.07,178.74 596.51,181.39 591.83,184.29 C589.08,185.98 586.58,186.38 577.50,186.58 C571.45,186.71 565.32,186.61 563.88,186.35 ZM 666.44 181.70 C666.16,180.98 666.06,174.57 666.22,167.45 L 666.50 154.50 L 680.00 154.51 C695.17,154.52 698.47,155.54 702.11,161.30 C703.73,163.87 704.03,165.65 703.65,170.32 C702.79,180.87 698.81,183.00 680.00,183.00 C670.19,183.00 666.81,182.68 666.44,181.70 Z" fill="rgb(252,252,252)"/>
</g>
</svg>